<?xml version="1.0" standalone="no"?>
<!DOCTYPE svg PUBLIC "-//W3C//DTD SVG 20010904//EN"
 "http://www.w3.org/TR/2001/REC-SVG-20010904/DTD/svg10.dtd">
<svg version="1.0" xmlns="http://www.w3.org/2000/svg"
 width="728.000000pt" height="394.000000pt" viewBox="0 0 728.000000 394.000000"
 preserveAspectRatio="xMidYMid meet">
<metadata>
Created by potrace 1.16, written by Peter Selinger 2001-2019
</metadata>
<g transform="translate(0.000000,394.000000) scale(0.072800,-0.036481)"
fill="#000000" stroke="none">
<g>
<path d="M3626 8941 c-24 -21 -80 -60 -123 -87 -43 -26 -145 -91 -228 -143
-82 -53 -208 -125 -280 -161 -71 -36 -229 -131 -350 -212 -121 -80 -258 -164
-305 -188 -47 -23 -117 -64 -157 -91 -135 -92 -348 -216 -468 -273 -229 -110
-506 -258 -614 -331 -38 -25 -104 -63 -148 -85 -122 -61 -125 -66 -108 -215 9
-86 22 -109 78 -133 24 -11 98 -51 164 -91 97 -57 122 -76 127 -99 11 -45 20
-582 10 -582 -17 0 -107 67 -203 149 -141 121 -163 134 -231 139 -67 5 -191
-29 -220 -61 -28 -29 -40 -96 -40 -217 0 -139 11 -168 77 -206 80 -46 274
-178 518 -351 347 -246 410 -291 519 -372 55 -41 323 -223 596 -404 567 -378
568 -379 950 -662 371 -276 951 -700 1082 -792 57 -40 193 -143 303 -228 615
-478 865 -607 1216 -622 109 -5 151 -2 215 12 261 58 465 211 583 438 171 329
170 676 -3 1107 -93 231 -218 392 -445 575 l-73 59 28 23 c16 13 97 69 179
125 83 56 224 156 315 223 172 126 514 349 527 343 5 -2 100 -64 213 -139 305
-203 417 -262 737 -389 178 -70 249 -84 402 -77 140 7 334 38 426 68 182 62
331 190 447 385 178 301 170 615 -25 974 -88 161 -242 299 -430 384 -85 39
-238 90 -322 107 -92 19 -295 17 -390 -5 -112 -25 -297 -100 -378 -154 -111
-73 -214 -226 -224 -331 -8 -92 1 -83 -241 -250 l-103 -71 -57 39 c-31 22 -93
62 -138 90 -44 28 -88 59 -96 68 -13 15 -17 59 -19 263 l-4 244 67 51 c98 74
296 198 336 211 20 6 38 19 43 30 4 11 7 85 7 164 1 172 -3 182 -80 200 -29 7
-84 26 -123 42 -38 16 -107 43 -152 59 -78 28 -475 193 -538 224 -16 8 -55 25
-85 38 -30 14 -85 39 -122 56 -78 37 -519 210 -598 236 -30 10 -100 41 -155
70 -55 30 -167 77 -250 105 -147 51 -296 124 -610 300 -66 37 -214 113 -330
168 -218 104 -457 223 -535 267 -66 37 -109 34 -164 -14z m173 -5 c52 -32 496
-252 641 -318 36 -16 124 -62 195 -102 323 -181 451 -244 611 -299 88 -31 196
-76 240 -101 43 -24 124 -60 179 -79 121 -42 461 -175 541 -212 33 -15 82 -37
109 -50 170 -78 590 -255 685 -289 41 -15 89 -33 105 -40 57 -25 140 -55 181
-65 69 -18 72 -27 72 -191 0 -80 -4 -153 -9 -162 -5 -9 -22 -19 -38 -23 -32
-7 -266 -153 -352 -219 l-55 -43 4 -249 c3 -212 6 -252 20 -272 16 -22 204
-149 278 -188 l30 -16 120 83 c225 156 222 152 223 229 2 87 101 250 194 319
100 74 240 137 384 173 103 25 309 30 408 9 293 -61 570 -226 696 -414 59 -90
134 -248 164 -352 39 -131 45 -297 16 -420 -46 -193 -186 -411 -340 -529 -66
-51 -177 -109 -240 -126 -99 -26 -273 -51 -392 -57 -154 -7 -223 6 -407 78
-271 107 -453 205 -766 416 -93 62 -176 113 -184 113 -24 0 -353 -214 -532
-345 -91 -67 -214 -155 -275 -195 -161 -107 -245 -170 -245 -185 0 -7 33 -39
73 -71 159 -129 280 -263 365 -406 116 -197 212 -533 212 -743 0 -278 -127
-586 -307 -744 -110 -98 -245 -170 -379 -202 -173 -41 -438 -13 -630 68 -161
68 -463 268 -809 538 -110 85 -246 188 -303 228 -131 92 -711 516 -1082 792
-382 283 -383 284 -950 662 -273 181 -541 363 -596 404 -109 81 -172 126 -519
372 -243 172 -438 305 -517 350 -72 42 -81 66 -76 221 4 176 15 194 138 232
25 8 68 14 96 14 61 0 94 -20 234 -140 114 -98 188 -150 214 -150 18 0 19 9
12 283 -3 155 -9 297 -12 314 -6 29 -19 41 -125 103 -66 39 -139 79 -162 89
-60 26 -73 47 -81 121 -3 36 -9 76 -12 90 -9 39 28 76 125 124 47 24 111 61
141 81 96 66 419 239 635 341 102 49 320 176 448 263 40 27 110 68 157 91 47
24 184 108 305 188 121 81 279 176 350 212 72 36 198 108 280 161 83 52 185
117 228 143 43 27 99 66 123 87 57 49 88 50 163 5z"/>
<g>
<path d="M3647 8846 c-230 -150 -289 -187 -339 -215 -32 -18 -58 -39 -58 -47
0 -23 172 -116 603 -328 227 -111 480 -241 562 -288 83 -47 259 -140 391 -206
133 -67 318 -163 410 -215 185 -103 336 -181 429 -220 54 -23 101 -44 275
-124 148 -68 323 -160 443 -232 72 -44 152 -86 177 -92 44 -11 48 -10 140 35
52 26 142 83 200 126 58 42 146 102 195 133 128 78 175 115 170 129 -3 7 -67
37 -143 67 -402 159 -617 248 -862 359 -85 38 -249 106 -365 150 -115 44 -262
105 -325 135 -116 55 -218 96 -389 158 -52 19 -176 78 -275 132 -320 173
-1143 578 -1172 576 -10 -1 -41 -15 -67 -33z m151 -11 c37 -20 238 -119 447
-221 209 -102 467 -233 572 -291 191 -104 255 -132 446 -199 55 -19 142 -55
195 -81 173 -81 195 -91 344 -147 234 -89 335 -130 461 -190 107 -51 521 -222
822 -340 157 -61 157 -61 123 -89 -15 -12 -74 -51 -130 -86 -57 -35 -150 -99
-208 -141 -140 -104 -274 -173 -317 -165 -18 3 -92 42 -165 87 -158 96 -344
190 -563 286 -212 93 -388 181 -596 297 -94 53 -280 150 -413 217 -132 66
-308 159 -391 206 -82 47 -335 177 -562 288 -355 174 -603 305 -603 318 0 2
26 19 58 37 50 28 109 65 339 215 26 18 54 32 61 33 7 1 43 -15 80 -34z"/>
</g>
<g>
<path d="M3115 8511 c-22 -10 -74 -35 -115 -55 -104 -49 -478 -298 -473 -314
3 -7 19 -20 36 -29 18 -8 93 -55 167 -103 133 -86 492 -274 765 -400 167 -77
303 -154 600 -340 215 -134 325 -195 470 -260 39 -18 149 -78 245 -134 96 -56
236 -138 310 -180 74 -43 203 -120 285 -171 140 -86 355 -206 382 -213 7 -2
75 43 151 100 76 57 232 164 345 238 204 133 233 160 188 175 -11 3 -107 56
-213 117 -130 75 -267 143 -418 208 -261 113 -368 165 -465 227 -99 64 -331
188 -601 320 -128 63 -284 143 -346 179 -62 36 -336 177 -609 313 -273 137
-532 270 -576 295 -44 25 -82 46 -84 46 -2 0 -22 -9 -44 -19z m111 -32 c38
-23 291 -154 564 -290 272 -136 545 -276 605 -310 61 -35 229 -122 375 -194
303 -151 498 -255 596 -318 92 -59 163 -94 362 -178 249 -106 299 -131 496
-243 100 -57 198 -112 219 -122 20 -10 37 -20 37 -23 0 -3 -93 -67 -207 -141
-113 -74 -268 -181 -343 -237 l-138 -102 -113 61 c-63 34 -181 103 -264 153
-82 51 -211 128 -285 171 -74 42 -215 124 -312 181 -97 57 -194 110 -215 119
-101 41 -295 148 -497 274 -299 186 -434 263 -601 340 -272 126 -632 314 -765
400 -74 48 -150 95 -167 104 -18 9 -33 19 -33 22 0 13 399 266 500 316 63 31
116 57 116 58 1 0 33 -19 70 -41z"/>
</g>
<g>
<path d="M2205 7964 c-110 -69 -255 -153 -322 -186 -68 -33 -123 -65 -123 -72
0 -8 24 -23 53 -35 83 -35 268 -139 468 -263 255 -160 411 -248 713 -405 305
-158 577 -314 874 -500 117 -73 277 -170 355 -215 168 -96 243 -146 437 -288
175 -129 294 -200 334 -200 17 0 55 16 90 39 34 21 81 50 106 64 25 14 110 72
190 129 80 56 187 125 238 153 101 54 113 74 60 96 -31 12 -428 248 -662 394
-150 92 -334 193 -571 313 -228 115 -374 200 -569 331 -113 76 -279 171 -299
171 -5 0 -101 45 -387 182 -175 84 -364 188 -495 273 -117 75 -247 145 -271
145 -10 0 -109 -57 -219 -126z m310 72 c45 -24 121 -70 170 -101 177 -115 554
-311 770 -402 131 -55 280 -136 410 -224 196 -131 342 -216 570 -331 238 -120
421 -221 571 -313 238 -149 543 -331 616 -369 43 -23 78 -43 78 -46 0 -3 -41
-28 -92 -55 -51 -28 -158 -97 -238 -153 -80 -57 -165 -115 -190 -129 -25 -14
-72 -43 -106 -64 -33 -22 -69 -39 -80 -39 -30 0 -166 83 -324 200 -194 142
-269 192 -437 288 -78 45 -238 142 -355 215 -297 186 -569 342 -874 500 -302
157 -458 245 -712 403 -203 128 -365 219 -460 260 l-64 27 24 19 c12 9 28 18
34 18 34 0 520 283 569 331 16 16 36 10 120 -35z"/>
</g>
<g>
<path d="M1602 7640 c-24 -11 -56 -28 -70 -39 -15 -10 -79 -45 -142 -76 -63
-32 -167 -92 -230 -134 -63 -42 -130 -83 -148 -90 -18 -8 -31 -18 -29 -24 4
-14 334 -215 482 -295 66 -35 194 -113 285 -172 91 -59 217 -135 280 -170 101
-55 284 -158 650 -367 58 -33 199 -117 314 -187 115 -69 286 -164 380 -211
127 -62 202 -108 290 -174 152 -114 471 -292 638 -355 58 -21 66 -18 163 71
66 61 157 124 359 252 47 30 84 59 83 64 -1 6 -38 33 -82 59 -44 27 -120 80
-170 118 -126 97 -314 221 -490 324 -82 49 -226 139 -320 201 -93 62 -233 147
-310 188 -77 41 -183 101 -235 132 -52 32 -207 118 -345 190 -373 197 -533
287 -670 378 -129 85 -298 187 -311 187 -4 0 -68 31 -143 68 -75 38 -147 72
-161 75 -15 4 -42 -1 -68 -13z m160 -42 c37 -21 70 -38 72 -38 12 0 157 -73
234 -117 46 -26 139 -85 207 -130 137 -91 297 -181 670 -378 138 -72 293 -158
345 -190 52 -31 158 -91 235 -132 77 -41 217 -126 310 -188 94 -62 238 -152
320 -201 175 -102 365 -227 485 -320 47 -37 122 -89 168 -117 99 -60 102 -53
-63 -152 -142 -86 -212 -137 -309 -224 -43 -39 -82 -71 -87 -71 -26 0 -340
157 -497 249 -39 23 -122 80 -184 126 -82 62 -160 109 -283 169 -93 47 -264
142 -380 212 -115 70 -257 154 -315 187 -366 209 -549 312 -650 367 -63 35
-189 111 -280 170 -91 59 -219 137 -285 172 -66 36 -202 115 -302 176 l-182
110 32 13 c18 7 84 48 147 90 63 42 169 104 235 138 66 34 147 77 180 96 69
40 78 39 177 -17z"/>
</g>
<g>
<path d="M7220 7184 c-19 -14 -75 -50 -125 -81 -49 -31 -139 -93 -200 -139
-99 -74 -217 -144 -244 -144 -6 0 -15 -9 -21 -19 -13 -25 -13 -151 0 -151 5 0
49 27 97 61 114 79 389 263 476 317 l67 42 0 70 c0 39 -3 70 -7 70 -5 -1 -24
-12 -43 -26z m23 -112 c-10 -7 -112 -75 -228 -151 -115 -76 -250 -166 -298
-200 l-88 -61 3 67 3 68 90 45 c50 25 135 79 190 121 55 42 146 105 203 140
57 35 111 71 120 80 16 15 17 12 20 -40 3 -45 0 -59 -15 -69z"/>
</g>
<g>
<path d="M930 7176 c0 -53 17 -73 102 -118 46 -24 127 -72 180 -105 54 -34
108 -65 120 -69 32 -10 91 -48 178 -114 41 -32 121 -81 176 -109 120 -59 246
-132 364 -211 47 -31 141 -87 210 -125 69 -37 159 -89 200 -115 41 -26 152
-91 245 -145 94 -54 220 -129 280 -168 61 -39 162 -97 225 -130 63 -33 142
-79 175 -102 33 -23 141 -91 240 -150 99 -59 200 -123 225 -142 25 -19 86 -58
135 -87 50 -29 130 -78 179 -109 49 -32 95 -57 101 -57 8 0 15 24 20 66 4 36
5 67 3 69 -1 1 -88 46 -193 100 -320 165 -334 174 -558 348 -34 26 -139 86
-234 132 -94 46 -261 137 -370 203 -109 66 -241 143 -293 172 -52 29 -144 83
-205 120 -60 37 -182 107 -270 155 -163 90 -263 149 -530 315 -82 51 -255 153
-384 227 -128 73 -246 142 -261 153 -38 27 -60 26 -60 -4z m50 -6 c15 -11 133
-80 261 -153 129 -74 302 -176 384 -227 267 -166 367 -225 530 -315 88 -48
210 -118 270 -155 61 -37 153 -91 205 -120 52 -29 183 -106 291 -171 108 -65
275 -156 370 -203 96 -47 202 -106 236 -133 218 -171 279 -208 607 -372 158
-80 153 -74 138 -154 l-7 -38 -90 57 c-49 31 -130 81 -180 110 -49 29 -110 68
-135 87 -25 19 -126 83 -225 142 -99 59 -207 127 -240 150 -33 23 -112 69
-175 102 -63 33 -164 91 -225 130 -60 39 -186 114 -280 168 -93 54 -204 119
-245 145 -41 26 -131 78 -200 115 -69 38 -163 94 -210 125 -118 78 -244 152
-364 212 -55 28 -144 83 -196 122 -52 39 -111 78 -130 85 -19 8 -82 44 -140
80 -58 35 -142 85 -188 109 -83 44 -102 63 -102 101 0 26 5 26 40 1z"/>
</g>
<g>
<path d="M1308 6798 c-2 -7 -1 -191 3 -408 8 -422 6 -442 -39 -448 -29 -4 -93
37 -251 160 -132 104 -363 258 -385 258 -9 0 -19 -12 -22 -26 -9 -36 4 -185
18 -202 7 -7 77 -57 157 -109 80 -53 207 -139 281 -192 74 -54 214 -149 310
-213 96 -63 263 -179 370 -258 107 -78 355 -248 550 -378 463 -307 559 -374
900 -627 157 -117 418 -305 580 -420 359 -253 500 -357 741 -551 230 -184 660
-474 824 -557 288 -144 586 -163 807 -51 66 33 169 133 227 219 134 201 181
485 119 715 -29 105 -129 363 -183 469 -90 180 -243 367 -390 476 -77 57 -222
137 -305 169 -101 37 -254 59 -378 54 -90 -4 -120 -10 -187 -37 -141 -55 -209
-120 -251 -237 -51 -140 -24 -285 71 -380 63 -64 108 -79 226 -79 93 0 82 -4
284 103 109 58 212 79 308 63 164 -27 311 -139 440 -333 109 -164 150 -290
151 -463 0 -181 -48 -299 -165 -409 -236 -223 -528 -193 -1020 105 -223 134
-387 242 -619 407 -293 208 -341 245 -389 302 -24 28 -79 76 -122 106 -44 31
-86 69 -94 85 -10 19 -15 59 -15 121 0 51 -5 158 -11 238 -6 80 -14 299 -17
486 -6 310 -9 344 -25 362 -23 25 -104 68 -113 60 -3 -4 2 -73 11 -155 13
-108 18 -255 21 -549 3 -389 3 -402 -16 -419 -23 -21 -18 -24 -247 138 -169
119 -281 195 -788 533 -93 63 -249 172 -345 244 -298 221 -625 452 -737 521
-60 36 -121 78 -137 93 -28 26 -28 28 -22 109 3 45 8 252 12 459 l7 377 -63
40 c-69 45 -76 47 -82 29z m127 -462 c-12 -607 -14 -545 15 -568 14 -11 73
-50 133 -87 113 -70 444 -304 737 -521 96 -72 252 -181 345 -244 601 -400 780
-522 896 -608 97 -73 124 -84 155 -63 l24 15 -5 418 c-3 290 -9 455 -19 542
-21 166 -23 155 25 128 80 -45 79 -40 79 -312 0 -132 7 -349 15 -481 8 -132
15 -280 15 -328 0 -121 11 -142 108 -210 44 -31 99 -79 123 -107 48 -57 96
-94 389 -302 396 -281 712 -475 911 -559 193 -81 240 -93 384 -93 106 0 128 3
188 27 84 33 138 69 203 139 60 64 83 105 115 208 30 96 32 260 4 364 -55 213
-203 434 -363 540 -188 125 -380 121 -607 -13 -125 -73 -206 -88 -315 -55 -39
12 -66 29 -104 67 -77 78 -91 113 -91 232 0 93 2 105 33 167 39 80 97 134 193
182 95 48 162 60 299 53 156 -7 247 -28 365 -86 351 -172 548 -402 726 -848
28 -70 62 -170 77 -223 65 -239 14 -520 -132 -724 -54 -76 -147 -164 -211
-200 -200 -111 -499 -95 -770 41 -185 93 -602 374 -844 567 -238 191 -377 294
-741 551 -162 115 -423 304 -580 420 -345 256 -450 329 -875 609 -181 120
-435 295 -564 389 -130 94 -308 218 -396 276 -88 58 -221 148 -295 202 -74 53
-201 139 -281 192 -80 52 -151 102 -158 110 -17 21 -28 192 -13 201 15 9 234
-136 383 -251 63 -49 136 -104 162 -122 59 -40 116 -51 137 -26 17 20 17 40
12 540 -2 165 -3 304 -3 308 1 4 29 -11 62 -34 l62 -42 -8 -381z"/>
</g>
<g>
<path d="M6480 6699 c-19 -17 -145 -104 -280 -194 -135 -90 -275 -188 -311
-219 -59 -49 -67 -61 -71 -95 -2 -22 0 -37 4 -35 5 3 8 1 8 -5 0 -11 56 25
358 224 108 72 226 148 262 169 36 22 71 46 78 54 6 9 12 42 12 74 0 68 -9 71
-60 27z m50 -34 c0 -55 0 -56 -46 -83 -26 -15 -149 -94 -275 -177 -125 -82
-260 -171 -301 -197 l-73 -46 -3 26 c-3 21 5 35 35 61 69 61 215 166 368 264
83 53 182 121 220 151 39 30 71 55 73 55 1 1 2 -24 2 -54z"/>
</g>
<g>
<path d="M8700 6721 c13 -10 13 -11 0 -11 -8 0 17 -17 56 -38 224 -119 404
-305 508 -525 53 -113 68 -183 73 -357 4 -156 1 -185 -42 -317 -6 -17 -3 -23
8 -23 11 0 25 29 48 98 55 172 51 360 -13 562 -81 255 -263 452 -531 574 -79
37 -132 55 -107 37z m103 -47 c217 -109 351 -230 457 -410 116 -198 152 -494
85 -704 -15 -47 -32 -89 -37 -95 -8 -7 -8 -4 -3 10 45 112 59 329 31 477 -57
297 -261 563 -548 714 -100 52 -87 59 15 8z"/>
</g>
<g>
<path d="M8059 6681 c-126 -27 -211 -72 -290 -150 -64 -65 -102 -126 -114
-186 -4 -20 0 -15 13 16 44 108 138 205 252 263 102 51 224 70 408 64 130 -5
158 -9 242 -36 259 -86 485 -282 610 -531 119 -239 104 -606 -34 -814 -122
-184 -372 -287 -698 -287 -159 0 -238 18 -421 96 -188 81 -253 114 -437 222
-121 71 -390 248 -390 257 0 2 30 22 67 45 67 42 67 42 101 25 19 -9 85 -48
146 -88 147 -95 476 -260 672 -338 173 -69 386 -52 567 44 102 54 184 165 229
307 31 101 31 257 0 342 -61 167 -227 325 -383 363 -132 33 -226 2 -362 -119
-131 -117 -140 -121 -270 -121 -60 0 -98 -3 -85 -7 13 -3 53 -6 91 -7 105 -2
160 23 268 119 138 124 233 158 352 127 148 -39 319 -201 379 -360 45 -120 30
-289 -39 -427 -72 -142 -196 -238 -359 -276 -81 -18 -227 -21 -299 -4 -88 20
-511 220 -665 315 -52 32 -131 80 -174 107 -44 26 -87 48 -97 48 -24 0 -149
-79 -149 -95 0 -25 402 -285 578 -374 122 -62 422 -182 487 -196 142 -29 381
-15 545 32 90 25 213 89 267 138 132 118 203 315 203 560 0 287 -136 554 -375
736 -115 87 -203 132 -350 179 -100 33 -361 38 -486 11z"/>
</g>
<g>
<path d="M6785 6663 c-11 -8 -51 -33 -90 -55 -247 -143 -361 -214 -440 -273
-50 -37 -105 -74 -122 -83 -45 -21 -41 -38 8 -45 22 -3 84 -30 139 -61 55 -30
125 -63 156 -72 91 -26 132 -17 269 63 l120 69 3 226 c3 242 -1 263 -43 231z
m33 -225 l-3 -222 -125 -73 c-125 -73 -125 -73 -188 -69 -40 2 -79 12 -110 28
-26 13 -83 43 -127 66 -44 24 -97 45 -117 48 l-38 7 53 31 c28 18 83 56 120
84 38 29 134 91 215 139 81 47 183 108 227 134 44 26 83 48 88 49 4 0 6 -100
5 -222z"/>
</g>
<g>
<path d="M1535 6657 c-2 -6 -6 -184 -9 -394 -5 -305 -4 -383 7 -383 23 0 136
81 178 128 55 62 72 98 103 217 15 55 40 126 56 159 17 33 30 64 30 70 0 6
-60 44 -133 85 -73 40 -154 86 -180 102 -33 20 -49 25 -52 16z m79 -48 c30
-16 245 -137 274 -154 1 -1 -12 -32 -28 -69 -17 -37 -42 -111 -57 -164 -38
-144 -105 -233 -232 -309 l-44 -26 6 189 c4 104 7 278 7 387 0 182 1 197 16
182 9 -8 35 -25 58 -36z"/>
</g>
<g>
<path d="M7868 6477 c-26 -8 -55 -20 -65 -28 -60 -47 -133 -113 -133 -121 0
-6 32 18 71 51 79 69 107 85 162 95 56 10 104 -3 142 -38 40 -38 50 -70 40
-133 -6 -41 -16 -56 -69 -108 -33 -33 -83 -75 -110 -92 -27 -18 -42 -33 -33
-33 19 0 155 106 185 145 45 56 53 157 18 210 -34 52 -125 75 -208 52z"/>
</g>
<g>
<path d="M707 6427 c-3 -8 35 -40 102 -84 58 -39 174 -121 256 -182 83 -61
156 -111 163 -111 7 0 12 14 12 40 0 43 -2 45 -107 108 -34 20 -107 78 -163
127 -56 50 -113 95 -128 102 -37 17 -128 17 -135 0z m138 -16 c17 -10 73 -57
125 -104 52 -48 121 -101 153 -119 90 -50 109 -69 105 -100 -3 -27 -7 -25
-158 87 -85 63 -199 142 -252 177 -53 35 -97 66 -97 71 -2 15 95 7 124 -12z"/>
</g>
<g>
<path d="M1974 6402 c-17 -10 -40 -69 -74 -195 -35 -125 -74 -200 -137 -258
-24 -22 -43 -45 -43 -52 0 -7 12 -20 28 -29 44 -27 282 -197 352 -253 36 -29
175 -130 310 -225 135 -95 270 -191 300 -214 30 -22 102 -73 160 -111 58 -39
171 -118 251 -175 289 -207 331 -236 422 -292 50 -32 96 -58 101 -58 14 0 -1
424 -24 670 -11 118 -20 220 -20 227 0 6 -37 32 -82 58 -46 26 -112 68 -148
94 -36 25 -113 71 -171 102 -58 31 -174 99 -256 152 -83 53 -190 118 -239 145
-49 27 -138 78 -199 114 -350 205 -482 283 -500 294 -11 7 -25 10 -31 6z m226
-138 c102 -59 235 -137 295 -172 61 -35 160 -92 220 -127 61 -34 171 -101 245
-149 74 -47 176 -107 225 -133 50 -25 124 -69 165 -98 41 -29 112 -73 158 -99
45 -26 82 -51 82 -54 0 -4 9 -104 20 -222 11 -118 23 -315 27 -438 l6 -223
-36 23 c-122 77 -412 278 -565 390 -51 38 -119 85 -150 105 -31 20 -95 64
-142 98 -47 34 -195 140 -330 235 -135 95 -274 196 -310 225 -67 53 -236 176
-325 235 -27 18 -52 34 -53 36 -2 1 14 19 36 39 66 59 98 120 138 260 20 72
45 147 56 168 17 35 21 37 36 24 9 -8 100 -63 202 -123z"/>
</g>
<g>
<path d="M7859 6380 c-21 -10 -96 -66 -168 -124 -141 -112 -199 -153 -683
-484 -501 -342 -588 -403 -684 -473 -49 -37 -127 -90 -174 -119 -152 -93 -350
-235 -347 -248 2 -14 139 -72 171 -72 10 0 39 17 65 38 98 81 494 354 1119
771 648 432 852 590 852 657 0 46 -20 65 -71 70 -31 3 -55 -2 -80 -16z m119
-6 c14 -9 22 -26 22 -43 0 -63 -214 -226 -891 -678 -533 -357 -920 -622 -1037
-712 -41 -31 -80 -60 -87 -66 -14 -10 -45 -1 -134 37 l-44 18 129 91 c71 50
170 116 219 146 50 31 130 85 179 122 96 70 183 131 684 473 480 328 548 376
662 468 198 160 244 182 298 144z"/>
</g>
<g>
<path d="M8431 6204 c-28 -11 -75 -46 -131 -99 -48 -46 -102 -91 -121 -100
-89 -46 -237 -58 -354 -29 l-64 16 -110 -78 c-67 -48 -111 -86 -111 -96 0 -21
38 -47 268 -182 274 -162 450 -238 622 -270 145 -28 251 -15 332 41 87 59 148
199 150 343 3 149 -40 247 -152 354 -101 97 -230 136 -329 100z m218 -34 c75
-40 178 -147 214 -221 49 -101 55 -240 15 -355 -22 -61 -84 -148 -127 -178
-81 -56 -175 -68 -321 -40 -173 32 -324 100 -636 284 -210 125 -246 148 -242
160 2 5 51 43 110 85 l107 76 59 -16 c74 -19 200 -19 267 -1 91 24 125 45 210
126 46 44 103 90 127 101 61 28 138 21 217 -21z"/>
</g>
<g>
<path d="M5604 6086 c-56 -35 -160 -104 -230 -153 -71 -50 -168 -113 -216
-142 -48 -29 -94 -62 -103 -74 -14 -20 -22 -117 -9 -117 12 0 278 180 389 264
66 50 158 114 205 142 70 42 86 56 93 84 9 37 4 60 -15 59 -7 0 -59 -29 -114
-63z m126 40 c0 -39 -22 -66 -85 -101 -36 -20 -130 -84 -208 -143 -78 -58
-187 -135 -242 -170 -55 -36 -110 -74 -122 -85 l-23 -20 0 45 c0 55 10 65 140
143 52 32 145 93 207 136 111 79 311 207 326 208 4 1 7 -5 7 -13z"/>
</g>
<g>
<path d="M6853 6134 c-3 -8 -2 -19 3 -23 38 -33 246 -171 258 -171 9 0 20 8
25 19 9 16 -6 29 -119 105 -72 47 -137 86 -145 86 -9 0 -18 -7 -22 -16z m150
-75 c67 -45 124 -84 126 -86 3 -2 0 -8 -6 -14 -8 -8 -47 15 -136 77 -106 74
-138 104 -111 104 2 0 60 -37 127 -81z"/>
</g>
<g>
<path d="M5949 6121 c-26 -10 -66 -32 -90 -50 -24 -17 -107 -74 -184 -126 -77
-52 -219 -151 -315 -220 -96 -68 -222 -154 -280 -191 -245 -154 -339 -233
-395 -329 -25 -43 -138 -347 -150 -405 -15 -71 -76 -250 -102 -297 -33 -60
-182 -210 -246 -247 -26 -16 -47 -35 -47 -44 0 -10 22 -31 48 -48 26 -17 117
-86 202 -154 620 -493 1055 -777 1315 -860 182 -59 316 -43 394 45 79 90 129
266 112 388 -16 110 -77 258 -153 370 -116 171 -257 266 -407 275 -90 5 -151
-13 -300 -88 -133 -66 -197 -84 -287 -78 -178 12 -334 158 -364 343 -31 190
87 403 273 495 76 37 163 55 330 69 164 14 244 14 322 0 34 -7 73 -9 87 -6 14
4 67 41 119 83 52 41 186 137 299 212 113 75 273 184 355 242 83 59 192 134
243 169 50 34 92 68 92 75 0 6 -32 31 -70 55 -39 24 -108 71 -153 105 -45 35
-98 66 -117 69 -41 9 -126 48 -202 93 -119 72 -236 92 -329 55z m252 -30 c188
-98 236 -120 268 -126 20 -4 55 -23 79 -42 24 -20 93 -68 153 -108 l110 -73
-93 -63 c-51 -35 -160 -111 -243 -169 -82 -58 -242 -167 -355 -242 -113 -75
-250 -173 -305 -218 l-100 -81 -60 8 c-85 11 -322 8 -444 -6 -226 -27 -350
-93 -442 -234 -65 -100 -96 -228 -80 -328 18 -106 49 -169 120 -239 78 -78
148 -110 257 -117 92 -7 150 10 329 95 l140 67 95 0 c89 0 100 -2 165 -35 154
-77 316 -288 383 -500 29 -94 33 -149 17 -241 -23 -132 -98 -254 -182 -295
-63 -30 -186 -24 -308 16 -243 79 -702 381 -1305 860 -85 68 -176 137 -202
154 -26 17 -48 34 -48 38 0 3 21 19 47 34 69 40 216 190 245 249 27 54 78 203
103 303 22 89 118 343 148 394 59 100 150 176 397 332 58 37 184 123 280 191
96 69 238 168 315 220 77 52 165 112 195 133 75 53 103 62 186 59 57 -2 82 -8
135 -36z"/>
</g>
<g>
<path d="M6683 6039 c-35 -23 -63 -47 -63 -54 0 -7 24 -30 53 -52 68 -52 218
-145 227 -141 29 12 130 85 130 95 0 13 -254 193 -272 192 -7 0 -41 -18 -75
-40z m208 -60 l130 -91 -63 -42 -62 -43 -81 50 c-102 64 -187 128 -179 136 6
6 117 80 122 80 1 1 61 -40 133 -90z"/>
</g>
<g>
<path d="M1623 5823 c-13 -8 -23 -21 -23 -28 0 -6 48 -45 108 -85 59 -41 134
-94 167 -120 33 -25 80 -59 105 -75 25 -15 89 -62 144 -104 138 -107 268 -202
361 -267 44 -30 121 -84 170 -120 50 -35 149 -101 220 -146 72 -44 168 -109
215 -143 118 -85 541 -368 545 -363 4 4 8 38 6 59 -1 10 -39 39 -92 70 -49 29
-107 67 -127 84 -20 18 -95 71 -167 120 -71 48 -188 129 -260 179 -71 51 -162
114 -202 142 -144 99 -360 256 -438 318 -44 35 -98 75 -120 89 -22 14 -89 62
-150 106 -163 120 -424 301 -433 300 -4 0 -17 -7 -29 -16z m278 -168 c31 -22
106 -76 165 -119 60 -44 129 -93 154 -109 25 -17 81 -59 125 -94 79 -62 298
-221 438 -317 40 -28 131 -91 202 -142 72 -50 189 -131 260 -179 72 -49 147
-102 167 -120 20 -17 77 -55 127 -84 49 -29 91 -58 94 -64 7 -19 -8 -53 -17
-38 -4 6 -103 75 -219 153 -117 78 -250 169 -297 203 -47 34 -143 99 -215 143
-71 45 -170 111 -220 146 -49 36 -126 90 -170 120 -93 65 -223 160 -361 267
-55 42 -119 89 -144 104 -25 16 -72 50 -105 75 -33 26 -109 80 -168 120 -108
74 -108 74 -86 91 22 16 25 15 118 -49 53 -37 121 -85 152 -107z"/>
</g>
<g>
<path d="M7420 5750 c-11 -21 -13 -20 285 -187 309 -174 418 -225 455 -217 18
4 21 3 11 -4 -10 -7 0 -14 38 -27 29 -9 55 -14 58 -11 4 3 -2 6 -13 7 -18 0
-18 1 -1 8 14 5 4 11 -40 25 -76 24 -223 98 -408 205 -82 48 -172 100 -199
116 -28 15 -69 45 -91 67 -46 42 -79 48 -95 18z m84 -28 c46 -43 278 -178 501
-294 176 -91 183 -104 10 -19 -95 46 -568 311 -583 326 -7 6 9 25 20 25 6 0
29 -17 52 -38z m721 -392 c13 -5 14 -9 5 -9 -8 0 -24 4 -35 9 -13 5 -14 9 -5
9 8 0 24 -4 35 -9z"/>
</g>
<g>
<path d="M4784 5551 c-170 -109 -173 -110 -281 -206 -44 -38 -91 -80 -106 -92
-22 -19 -27 -31 -27 -71 0 -27 3 -51 6 -55 7 -7 127 79 225 162 36 31 128 99
204 151 135 93 155 114 155 164 0 53 -20 47 -176 -53z m166 53 c0 -14 -4 -33
-9 -42 -5 -10 -71 -60 -147 -112 -75 -52 -173 -125 -218 -163 -44 -37 -106
-85 -138 -108 l-58 -40 0 40 c0 32 6 46 27 64 15 12 62 54 106 92 44 39 91 79
106 91 37 30 312 204 322 204 5 0 9 -12 9 -26z"/>
</g>
<g>
<path d="M8288 5313 c7 -3 16 -2 19 1 4 3 -2 6 -13 5 -11 0 -14 -3 -6 -6z"/>
</g>
<g>
<path d="M8288 5293 c7 -3 16 -2 19 1 4 3 -2 6 -13 5 -11 0 -14 -3 -6 -6z"/>
</g>
<g>
<path d="M3914 5232 c-12 -9 1 -674 15 -797 6 -49 11 -120 11 -157 0 -44 4
-68 12 -70 30 -10 238 134 343 237 81 79 86 91 154 335 22 80 59 195 81 255
22 61 40 113 40 118 0 18 -30 2 -122 -69 -55 -41 -106 -78 -114 -81 -16 -6
-83 27 -181 90 -169 109 -230 145 -239 139z m142 -93 c281 -177 259 -174 399
-67 55 42 101 75 102 74 1 -1 -14 -44 -33 -96 -19 -52 -57 -174 -84 -270 -62
-215 -85 -264 -158 -331 -97 -89 -295 -229 -324 -229 -4 0 -8 23 -8 52 0 28
-7 133 -15 232 -14 177 -25 716 -14 716 3 0 63 -37 135 -81z"/>
</g>
<g>
<path d="M5660 4890 c12 -9 10 -10 -12 -6 -46 10 -32 -1 25 -20 288 -95 516
-306 699 -649 153 -287 220 -498 231 -730 3 -61 2 -83 -2 -55 -6 36 -8 39 -10
15 0 -16 -3 -48 -6 -70 -4 -35 -3 -36 4 -10 l9 30 2 -30 2 -30 10 35 c5 19 10
109 10 200 1 191 -19 310 -79 470 -152 406 -409 677 -783 822 -86 34 -120 43
-100 28z m150 -58 c186 -80 388 -241 516 -412 70 -93 177 -294 218 -408 40
-112 65 -254 70 -402 4 -120 4 -126 -4 -50 -19 178 -93 397 -211 630 -82 162
-169 289 -274 398 -126 132 -225 199 -400 269 -33 13 -46 21 -30 18 17 -4 68
-23 115 -43z"/>
</g>
<g>
<path d="M4008 4142 c-38 -23 -35 -35 15 -67 23 -15 83 -69 132 -119 57 -58
133 -121 210 -173 66 -45 162 -113 213 -150 51 -38 118 -84 150 -103 31 -19
127 -80 212 -135 352 -230 539 -322 724 -354 80 -15 96 -14 96 4 0 9 -9 15
-25 15 -41 0 -150 45 -266 110 -312 174 -622 393 -1259 885 -74 58 -144 104
-155 104 -11 -1 -32 -8 -47 -17z m192 -97 c612 -473 926 -696 1225 -867 125
-71 262 -128 308 -128 11 0 18 -3 14 -6 -3 -3 -37 -1 -74 5 -183 31 -359 118
-723 356 -85 55 -181 116 -212 135 -32 19 -99 65 -150 103 -51 37 -147 105
-213 150 -77 52 -153 115 -210 173 -49 50 -109 104 -133 119 l-42 28 27 18
c16 10 33 18 38 18 6 0 71 -46 145 -104z"/>
</g>
</g>
<g>
<path d="M2498 803 c1376 -2 3628 -2 5005 0 1376 1 250 2 -2503 2 -2753 0
-3879 -1 -2502 -2z"/>
</g>
<g>
<path d="M2116 534 c-9 -8 -15 -27 -15 -42 l2 -27 4 28 c6 38 43 55 78 37 45
-24 26 -99 -21 -84 -16 5 -16 4 -4 -5 13 -9 13 -11 -2 -11 -9 0 -20 5 -23 10
-3 6 -12 10 -18 10 -19 -1 25 -30 45 -30 27 0 58 36 58 68 0 53 -68 83 -104
46z"/>
</g>
<g>
<path d="M1308 517 c-28 -7 -39 -16 -47 -39 -16 -46 4 -78 61 -97 26 -9 55
-23 63 -32 15 -15 15 -18 -1 -34 -14 -14 -29 -16 -76 -12 -51 4 -58 3 -58 -13
0 -23 19 -30 84 -30 68 0 106 26 106 74 0 45 -16 62 -83 86 -43 16 -57 26 -55
38 4 21 63 29 84 12 17 -15 44 -6 44 13 0 13 -24 26 -70 39 -8 3 -32 0 -52 -5z
m106 -27 c16 -16 0 -23 -24 -10 -11 6 -38 10 -58 8 -32 -3 -37 -7 -40 -30 -3
-23 2 -28 45 -42 27 -9 59 -23 71 -32 30 -20 29 -64 -2 -93 -20 -19 -33 -22
-81 -19 -32 2 -60 8 -62 14 -3 8 10 10 41 7 58 -7 92 2 98 25 8 31 -9 49 -62
67 -63 21 -86 51 -69 89 20 42 107 52 143 16z"/>
</g>
<g>
<path d="M300 513 c0 -5 19 -63 42 -130 37 -105 46 -123 64 -123 18 0 27 17
63 118 45 129 47 142 29 142 -12 0 -94 -217 -85 -226 2 -2 10 15 17 38 7 24
15 38 17 32 6 -18 -24 -89 -40 -92 -10 -2 -20 12 -32 48 -9 28 -15 54 -12 57
3 3 11 -14 18 -36 7 -23 14 -39 17 -37 9 10 -71 216 -84 216 -8 0 -14 -3 -14
-7z m45 -71 c9 -29 15 -56 12 -58 -3 -3 -13 19 -22 48 -10 29 -20 60 -23 68
-3 10 -2 12 5 5 6 -5 18 -34 28 -63z m131 -13 c-14 -35 -25 -59 -26 -53 0 18
43 139 47 128 2 -6 -8 -39 -21 -75z"/>
</g>
<g>
<path d="M860 409 c0 -117 9 -149 40 -149 23 0 27 25 5 34 -23 9 -21 131 3
145 16 10 16 12 0 25 -10 7 -18 23 -18 35 0 12 -6 21 -15 21 -12 0 -15 -19
-15 -111z m38 51 c16 -1 16 -2 0 -14 -25 -18 -25 -131 -1 -158 18 -20 4 -25
-15 -6 -8 8 -12 48 -11 123 1 60 4 98 6 83 3 -18 11 -28 21 -28z"/>
</g>
<g>
<path d="M1460 418 c0 -122 11 -152 58 -156 26 -3 32 0 32 16 0 11 -9 22 -20
25 -17 4 -20 14 -20 66 0 54 2 61 20 61 26 0 26 27 1 35 -11 3 -21 16 -23 28
-2 14 -11 23 -25 25 -23 3 -23 2 -23 -100z m40 68 c0 -16 7 -26 23 -30 l22 -7
-22 -9 c-21 -8 -23 -16 -23 -76 0 -57 3 -67 20 -71 26 -7 26 -23 1 -23 -38 0
-51 37 -51 142 0 80 3 98 15 98 9 0 15 -9 15 -24z"/>
</g>
<g>
<path d="M1940 390 c0 -123 1 -130 20 -130 17 0 20 7 20 40 0 22 3 40 8 40 4
0 18 -18 32 -39 25 -42 51 -56 69 -38 7 7 0 25 -24 59 -19 26 -35 51 -35 55 0
4 14 22 32 40 20 21 27 33 17 33 -12 0 -12 2 1 11 11 8 9 9 -10 4 -23 -7 -65
-37 -82 -60 -4 -5 -8 18 -8 53 0 55 -2 62 -20 62 -19 0 -20 -7 -20 -130z m30
60 c0 -35 4 -60 11 -60 5 0 24 13 42 30 40 38 60 39 24 2 -34 -36 -34 -53 3
-104 17 -22 30 -45 30 -49 0 -18 -27 4 -50 41 -33 54 -60 54 -60 0 0 -22 -4
-40 -10 -40 -6 0 -10 47 -10 120 0 73 4 120 10 120 6 0 10 -27 10 -60z"/>
</g>
<g>
<path d="M2130 489 c0 -24 32 -34 46 -14 9 12 13 13 17 3 3 -7 4 -2 4 10 -1
24 -2 24 -18 4 -11 -14 -20 -17 -30 -11 -10 6 -10 9 -1 9 6 0 12 4 12 8 0 5
-7 9 -15 9 -8 0 -15 -8 -15 -18z"/>
</g>
<g>
<path d="M555 463 c-32 -8 -44 -23 -56 -66 -16 -62 2 -114 47 -133 50 -21 140
-1 103 22 -8 4 -9 3 -5 -4 5 -8 -1 -12 -16 -12 -15 0 -19 3 -11 8 8 5 -2 8
-23 8 -24 0 -41 6 -50 19 -22 30 -17 35 35 35 83 0 93 12 70 78 -7 20 -21 34
-41 41 -17 6 -31 10 -32 10 -1 -1 -10 -4 -21 -6z m73 -28 c8 -7 15 -28 15 -46
l2 -34 -62 -3 c-53 -2 -63 -6 -63 -21 0 -22 25 -44 65 -60 l30 -11 -35 5 c-53
8 -75 36 -74 95 0 27 7 56 14 65 29 35 78 39 108 10z"/>
<g>
<path d="M546 429 c-15 -12 -26 -30 -26 -45 0 -24 2 -25 57 -22 68 4 80 22 39
63 -30 30 -36 31 -70 4z m63 -13 c30 -32 20 -46 -35 -46 -50 0 -58 16 -24 50
26 26 32 25 59 -4z"/>
</g>
</g>
<g>
<path d="M744 463 c-41 -8 -59 -40 -59 -103 0 -66 18 -94 66 -104 41 -8 79 2
79 21 0 12 -8 14 -33 9 -50 -9 -87 23 -87 74 0 51 37 83 87 74 26 -5 33 -3 33
10 0 9 -6 16 -12 16 -7 0 -22 2 -33 4 -11 2 -30 2 -41 -1z m61 -14 c16 -8 15
-8 -8 -4 -52 10 -96 -29 -96 -85 0 -57 44 -96 96 -85 25 6 26 5 9 -6 -28 -17
-90 4 -104 36 -26 56 -7 128 37 144 33 12 41 12 66 0z"/>
</g>
<g>
<path d="M1005 463 c-44 -11 -65 -43 -65 -103 0 -71 29 -105 90 -105 61 0 90
34 90 105 0 46 -4 60 -22 77 -25 22 -62 33 -93 26z m88 -35 c24 -28 23 -108
-2 -139 -27 -33 -95 -33 -122 0 -23 29 -26 107 -4 138 26 37 96 37 128 1z"/>
<g>
<path d="M1003 440 c-28 -11 -43 -40 -43 -83 0 -48 28 -80 70 -80 43 0 70 32
70 83 0 61 -47 100 -97 80z m61 -21 c37 -29 34 -92 -6 -122 l-28 -21 -27 21
c-41 30 -44 93 -7 122 15 11 30 21 34 21 4 0 19 -10 34 -21z"/>
</g>
</g>
<g>
<path d="M1623 458 c-54 -14 -76 -77 -52 -147 14 -38 35 -51 88 -51 49 0 77
24 86 74 7 35 -8 101 -26 112 -24 14 -67 20 -96 12z m102 -49 c19 -36 19 -62
0 -98 -29 -58 -111 -58 -140 0 -20 37 -19 79 3 106 38 49 110 46 137 -8z"/>
<g>
<path d="M1612 418 c-7 -7 -12 -33 -12 -58 0 -54 13 -70 55 -70 42 0 55 16 55
70 0 54 -13 70 -55 70 -17 0 -36 -5 -43 -12z m76 -10 c7 -7 12 -28 12 -48 0
-41 -14 -60 -45 -60 -31 0 -45 19 -45 60 0 41 14 60 45 60 12 0 26 -5 33 -12z"/>
</g>
</g>
<g>
<path d="M1144 447 c-10 -28 1 -180 14 -185 9 -3 12 15 12 66 0 67 2 72 30 92
17 12 30 26 30 31 0 12 -37 12 -44 0 -4 -5 4 -7 16 -4 20 4 19 2 -4 -12 -30
-17 -36 -33 -41 -115 -2 -34 -4 -20 -5 38 -1 60 2 91 8 87 6 -3 10 -1 10 4 0
16 -20 13 -26 -2z"/>
</g>
<g>
<path d="M1790 435 c-19 -20 -24 -37 -24 -75 0 -70 29 -100 96 -100 41 0 48 3
48 20 0 16 -7 20 -34 20 -42 0 -66 22 -66 60 0 38 24 60 66 60 27 0 34 4 34
20 0 17 -7 20 -48 20 -39 0 -53 -5 -72 -25z m110 5 c0 -5 -15 -10 -32 -10 -52
0 -63 -13 -63 -70 0 -57 11 -70 63 -70 17 0 32 -4 32 -10 0 -5 -17 -10 -38
-10 -52 0 -87 36 -87 90 0 54 35 90 87 90 21 0 38 -4 38 -10z"/>
</g>
<g>
<path d="M7873 410 c-36 -15 -32 -64 7 -80 38 -16 34 -36 -6 -33 -18 1 -21 0
-9 -4 35 -9 43 -25 10 -18 -26 5 -27 4 -7 -4 37 -17 72 2 72 39 0 26 -5 33
-30 42 -37 12 -34 34 3 30 19 -2 27 1 27 12 0 9 -8 16 -17 16 -16 0 -16 -2 -3
-11 12 -8 11 -9 -5 -6 -11 2 -19 9 -17 15 1 7 1 12 0 11 -2 0 -13 -4 -25 -9z
m10 -17 c-22 -8 -14 -32 17 -48 34 -18 44 -66 13 -64 -11 0 -13 3 -5 6 21 8
13 32 -18 48 -34 18 -44 66 -12 64 10 0 12 -3 5 -6z"/>
</g>
<g>
<path d="M8980 413 c-8 -3 -18 -11 -22 -17 -11 -15 -10 -98 1 -115 12 -19 70
-19 82 0 11 17 12 99 1 115 -9 15 -43 24 -62 17z m41 -13 c28 -16 28 -105 -1
-120 -14 -8 -26 -8 -40 0 -27 15 -29 104 -2 119 21 13 20 13 43 1z"/>
<g>
<path d="M8974 377 c-3 -8 -4 -30 -2 -49 2 -28 7 -33 28 -33 23 0 25 4 25 45
0 39 -3 45 -23 48 -13 2 -24 -3 -28 -11z m41 -37 c0 -25 -5 -36 -17 -38 -15
-3 -18 4 -18 38 0 34 3 41 18 38 12 -2 17 -13 17 -38z"/>
</g>
</g>
<g>
<path d="M9082 408 c-6 -6 -12 -25 -12 -40 0 -25 3 -28 28 -26 21 2 28 -2 30
-19 3 -20 -1 -23 -27 -23 -37 0 -43 -25 -8 -32 46 -9 67 7 67 52 0 35 -4 42
-27 52 -27 11 -28 12 -5 16 13 2 21 9 19 15 -5 17 -50 20 -65 5z m48 -5 c-38
-14 -42 -26 -11 -39 25 -10 31 -19 31 -43 0 -35 -25 -53 -55 -40 -17 7 -16 8
8 8 31 1 46 25 30 50 -6 9 -20 15 -32 14 -16 -2 -21 3 -21 20 0 30 7 37 39 36
16 0 20 -3 11 -6z"/>
</g>
<g>
<path d="M9202 409 c-20 -7 -23 -15 -20 -46 3 -33 7 -38 31 -41 23 -3 26 -6
16 -18 -6 -8 -18 -14 -25 -14 -8 0 -14 -4 -14 -10 0 -5 7 -6 17 -3 11 4 14 3
9 -5 -10 -17 26 -3 42 16 13 17 16 90 4 108 -11 17 -35 22 -60 13z m58 -62 c0
-41 -13 -67 -34 -67 -5 0 -2 8 7 18 23 25 21 30 -10 34 -23 2 -29 8 -31 35 -2
24 1 32 15 35 35 8 53 -10 53 -55z"/>
<g>
<path d="M9202 368 c2 -15 11 -24 26 -26 20 -3 23 0 20 20 -2 15 -11 24 -26
26 -20 3 -23 0 -20 -20z m36 -6 c2 -7 -3 -12 -12 -12 -9 0 -16 7 -16 16 0 17
22 14 28 -4z"/>
</g>
</g>
<g>
<path d="M9302 408 c-6 -6 -12 -25 -12 -40 0 -25 3 -28 28 -26 21 2 28 -2 30
-19 3 -20 -1 -23 -27 -23 -20 0 -31 -5 -31 -14 0 -18 36 -27 66 -16 20 8 24
16 24 50 0 35 -4 42 -27 52 -27 11 -28 12 -5 16 13 2 21 9 19 15 -5 17 -50 20
-65 5z m43 -5 c-34 -9 -36 -26 -4 -40 23 -9 29 -18 29 -42 0 -36 -30 -58 -58
-42 -14 9 -13 10 11 11 31 0 46 24 30 49 -6 9 -20 15 -32 14 -16 -2 -21 3 -21
20 0 30 8 37 39 36 21 -1 22 -2 6 -6z"/>
</g>
<g>
<path d="M9442 412 c-30 -5 -44 -34 -40 -85 2 -32 8 -44 27 -53 36 -18 65 -3
69 36 4 36 -9 50 -47 50 -29 0 -16 20 15 24 22 3 30 22 12 28 -7 2 -23 2 -36
0z m34 -14 c4 -6 3 -8 -3 -5 -11 7 -53 -19 -53 -33 0 -5 15 -10 33 -12 26 -2
33 -8 35 -30 4 -32 -22 -50 -55 -37 -41 15 -28 106 17 122 8 3 16 6 17 6 1 1
5 -4 9 -11z"/>
<g>
<path d="M9420 320 c0 -27 34 -44 50 -25 18 21 5 45 -25 45 -18 0 -25 -5 -25
-20z m50 -3 c0 -21 -12 -28 -27 -16 -19 16 -16 29 7 29 11 0 20 -6 20 -13z"/>
</g>
</g>
<g>
<path d="M9540 413 c19 -3 39 -8 43 -12 5 -5 -5 -35 -22 -67 -34 -67 -41 -68
-11 -3 28 62 26 69 -17 67 l-38 -1 33 -4 c29 -4 32 -7 26 -26 -4 -12 -13 -31
-20 -42 -18 -25 -18 -55 -1 -55 12 0 67 105 67 128 0 14 -26 22 -63 20 l-32
-1 35 -4z"/>
</g>
<g>
<path d="M7250 403 c0 -5 10 -36 22 -70 30 -84 49 -84 77 -1 25 74 25 78 6 78
-8 0 -19 -17 -26 -40 -7 -22 -15 -40 -19 -40 -4 0 -12 18 -19 40 -7 23 -18 40
-26 40 -8 0 -15 -3 -15 -7z m36 -46 c11 -33 31 -47 39 -25 19 56 26 70 30 66
8 -7 -30 -111 -42 -115 -8 -3 -53 94 -53 115 0 13 16 -12 26 -41z"/>
</g>
<g>
<path d="M8233 389 c-4 -15 -11 -19 -25 -15 -11 2 -31 1 -44 -4 -20 -8 -24
-16 -24 -50 0 -47 20 -60 83 -52 29 3 37 8 38 26 l0 21 16 -23 c28 -41 56 -24
32 20 -8 14 -8 23 0 31 17 17 13 27 -9 27 -11 0 -20 -4 -20 -10 0 -5 -4 -10
-10 -10 -5 0 -10 14 -10 30 0 34 -19 41 -27 9z m28 -43 c6 -6 13 -6 21 2 18
18 33 15 18 -3 -10 -12 -10 -21 -2 -40 7 -14 7 -25 2 -25 -5 0 -12 9 -15 20
-3 11 -13 20 -21 20 -8 0 -14 -9 -14 -20 0 -11 -4 -20 -10 -20 -5 0 -8 12 -6
28 2 15 1 20 -1 11 -5 -19 -43 -33 -56 -20 -17 17 -2 46 22 43 17 -1 25 5 34
29 11 30 12 30 15 8 2 -13 8 -28 13 -33z m-51 14 c12 -8 10 -10 -9 -8 -30 4
-50 -25 -35 -49 7 -11 22 -17 35 -16 21 2 22 1 7 -8 -12 -7 -24 -7 -38 1 -26
14 -27 65 -2 79 21 13 24 13 42 1z"/>
</g>
<g>
<path d="M8794 340 c-12 -38 -18 -67 -14 -65 5 3 10 0 12 -7 5 -13 48 105 48
129 0 7 -6 13 -12 13 -7 0 -23 -32 -34 -70z m20 -4 c-10 -31 -19 -54 -22 -52
-2 2 4 29 14 60 10 31 19 54 22 52 2 -2 -4 -29 -14 -60z"/>
</g>
<g>
<path d="M8873 403 c-7 -2 -13 -14 -13 -24 0 -12 4 -17 11 -13 8 4 10 -8 8
-40 -2 -25 -1 -46 3 -46 12 0 9 85 -3 97 -7 7 -6 12 5 16 13 5 16 -2 16 -37 0
-51 8 -76 23 -76 7 0 7 4 -1 12 -7 7 -12 36 -12 65 0 52 -5 59 -37 46z"/>
</g>
<g>
<path d="M9648 393 c-41 -48 -49 -93 -17 -93 12 0 28 -8 35 -17 12 -16 15 -16
24 -3 6 8 8 28 5 44 -3 16 -5 41 -5 57 0 33 -19 38 -42 12z m32 -107 c-7 -7
-10 -5 -10 7 0 11 -8 17 -25 17 -33 0 -32 20 2 61 l28 33 8 -54 c4 -34 4 -57
-3 -64z"/>
<g>
<path d="M9644 349 c-4 -8 -3 -9 4 -5 7 4 12 3 12 -3 0 -5 -8 -12 -17 -14 -14
-4 -12 -5 5 -6 13 -1 22 5 22 13 0 20 -17 29 -26 15z"/>
</g>
</g>
<g>
<path d="M7398 369 c-13 -7 -18 -22 -18 -50 0 -32 4 -41 24 -49 30 -11 66 -2
66 17 0 11 -7 13 -24 9 -14 -3 -27 -2 -31 3 -3 5 7 11 22 13 34 4 43 36 17 55
-21 15 -33 16 -56 2z m50 -11 c21 -21 13 -38 -18 -38 -16 0 -30 -4 -30 -9 0
-16 27 -31 46 -25 17 5 18 5 2 -6 -13 -8 -23 -8 -38 0 -34 18 -22 90 15 90 6
0 16 -5 23 -12z"/>
<g>
<path d="M7418 353 c7 -3 16 -2 19 1 4 3 -2 6 -13 5 -11 0 -14 -3 -6 -6z"/>
</g>
<g>
<path d="M7413 333 c9 -2 23 -2 30 0 6 3 -1 5 -18 5 -16 0 -22 -2 -12 -5z"/>
</g>
</g>
<g>
<path d="M7513 370 c-19 -8 -23 -17 -23 -50 0 -34 4 -42 24 -50 30 -11 66 -2
66 17 0 9 -9 13 -27 11 -24 -3 -28 1 -28 22 0 14 6 25 13 24 6 -1 20 -2 31 -2
13 -2 21 -13 25 -37 5 -26 12 -35 26 -35 21 0 27 24 9 36 -6 3 -9 15 -6 25 3
11 1 19 -4 19 -12 0 -11 -27 1 -51 6 -11 7 -19 1 -19 -12 0 -21 25 -21 61 0
26 3 29 21 24 15 -5 19 -4 15 4 -11 18 -46 13 -46 -6 0 -11 -3 -14 -8 -7 -11
17 -44 24 -69 14z m47 -10 c12 -8 10 -10 -9 -8 -30 4 -50 -25 -35 -49 7 -11
22 -17 35 -16 21 2 22 1 7 -8 -12 -7 -24 -7 -38 1 -26 14 -27 65 -2 79 21 13
24 13 42 1z"/>
</g>
<g>
<path d="M7683 370 c-19 -8 -23 -17 -23 -50 0 -34 4 -42 25 -50 16 -6 34 -6
50 0 21 8 25 16 25 50 0 34 -4 42 -26 50 -14 6 -26 10 -27 9 -1 0 -12 -4 -24
-9z m48 -10 c26 -15 26 -66 -1 -80 -14 -8 -26 -8 -40 0 -26 14 -27 65 -2 79
21 13 20 13 43 1z"/>
<g>
<path d="M7692 348 c-28 -28 3 -83 33 -58 8 7 15 20 15 29 0 17 -18 41 -30 41
-3 0 -11 -5 -18 -12z m33 -28 c0 -13 -6 -25 -12 -27 -16 -6 -27 21 -19 43 9
23 31 11 31 -16z"/>
</g>
</g>
<g>
<path d="M7950 348 c0 -52 11 -78 31 -78 20 0 26 25 8 36 -6 3 -9 15 -6 25 3
11 1 19 -4 19 -12 0 -11 -27 1 -51 6 -11 7 -19 1 -19 -12 0 -21 25 -21 61 0
26 3 29 21 24 15 -5 19 -4 15 4 -4 6 -16 11 -27 11 -15 0 -19 -7 -19 -32z"/>
</g>
<g>
<path d="M8043 370 c-19 -8 -23 -17 -23 -50 0 -34 4 -42 25 -50 16 -6 34 -6
50 0 21 8 25 16 25 50 0 34 -4 42 -26 50 -14 6 -26 10 -27 9 -1 0 -12 -4 -24
-9z m48 -10 c26 -15 26 -66 -1 -80 -14 -8 -26 -8 -40 0 -26 14 -27 65 -2 79
21 13 20 13 43 1z"/>
<g>
<path d="M8052 348 c-28 -28 3 -83 33 -58 8 7 15 20 15 29 0 17 -18 41 -30 41
-3 0 -11 -5 -18 -12z m33 -28 c0 -13 -6 -25 -12 -27 -16 -6 -27 21 -19 43 9
23 31 11 31 -16z"/>
</g>
</g>
<g>
<path d="M8413 370 c-19 -8 -23 -17 -23 -50 0 -34 4 -42 24 -50 30 -11 66 -2
66 17 0 9 -9 13 -27 11 -24 -3 -28 1 -28 22 0 21 4 25 28 22 19 -2 27 2 27 13
0 8 -4 15 -9 15 -5 0 -15 2 -23 4 -7 3 -23 1 -35 -4z m47 -10 c12 -8 10 -10
-9 -8 -30 4 -50 -25 -35 -49 7 -11 22 -17 35 -16 21 2 22 1 7 -8 -12 -7 -24
-7 -38 1 -26 14 -27 65 -2 79 21 13 24 13 42 1z"/>
</g>
<g>
<path d="M8513 370 c-19 -8 -23 -17 -23 -50 0 -34 4 -42 25 -50 16 -6 34 -6
50 0 21 8 25 16 25 50 0 34 -4 42 -26 50 -14 6 -26 10 -27 9 -1 0 -12 -4 -24
-9z m48 -10 c26 -15 26 -66 -1 -80 -14 -8 -26 -8 -40 0 -26 14 -27 65 -2 79
21 13 20 13 43 1z"/>
<g>
<path d="M8522 348 c-28 -28 3 -83 33 -58 8 7 15 20 15 29 0 17 -18 41 -30 41
-3 0 -11 -5 -18 -12z m33 -28 c0 -13 -6 -25 -12 -27 -16 -6 -27 21 -19 43 9
23 31 11 31 -16z"/>
</g>
</g>
<g>
<path d="M8635 371 c-27 -6 -29 -9 -30 -50 0 -27 5 -46 13 -48 7 -3 12 5 12
20 0 14 8 33 18 43 16 17 17 16 22 -21 5 -40 30 -62 30 -27 0 53 27 70 32 20
5 -55 28 -46 28 12 l0 51 -38 -2 c-21 -2 -42 0 -47 2 -6 3 -23 3 -40 0z m82
-13 c33 3 33 2 31 -40 l-1 -43 -4 38 c-5 49 -33 47 -50 -3 l-12 -35 0 36 c-1
42 -6 48 -31 42 -11 -3 -23 -20 -29 -41 l-10 -37 2 40 c2 34 6 41 27 46 14 3
29 3 35 0 5 -2 24 -4 42 -3z"/>
</g>
<g>
<path d="M7773 355 c-3 -9 -3 -19 1 -22 3 -4 6 1 6 10 0 9 11 17 28 20 l27 4
-28 2 c-17 0 -30 -5 -34 -14z"/>
</g>
<g>
<path d="M7794 313 c-7 -36 -8 -37 -15 -13 l-8 25 2 -24 c3 -31 27 -41 27 -11
0 12 5 30 10 41 7 12 7 19 1 19 -6 0 -13 -17 -17 -37z"/>
</g>
<g>
<path d="M8888 263 c6 -2 18 -2 25 0 6 3 1 5 -13 5 -14 0 -19 -2 -12 -5z"/>
</g>
</g>
</svg>
