<?xml version="1.0" standalone="no"?>
<!DOCTYPE svg PUBLIC "-//W3C//DTD SVG 20010904//EN"
 "http://www.w3.org/TR/2001/REC-SVG-20010904/DTD/svg10.dtd">
<svg version="1.0" xmlns="http://www.w3.org/2000/svg"
 width="728.000000pt" height="394.000000pt" viewBox="0 0 728.000000 394.000000"
 preserveAspectRatio="xMidYMid meet">
<metadata>
Created by potrace 1.16, written by Peter Selinger 2001-2019
</metadata>
<g transform="translate(0.000000,394.000000) scale(0.091000,-0.065667)"
fill="#000000" stroke="none">
<g>
<path d="M3899 5286 c-2 -2 -35 -7 -74 -11 -100 -9 -138 -18 -143 -35 -4 -12
-2 -13 9 -4 18 15 49 21 134 30 85 9 72 9 230 -1 72 -4 151 -9 177 -9 34 -1
52 -7 64 -21 8 -11 12 -14 8 -6 -6 12 4 13 58 8 112 -10 390 -112 452 -166 16
-13 18 -13 14 -1 -7 24 -113 75 -260 124 -163 55 -220 64 -508 80 -69 4 -132
9 -141 12 -8 2 -17 2 -20 0z"/>
</g>
<g>
<path d="M3532 5224 c-30 -8 -84 -28 -122 -44 -38 -17 -71 -30 -74 -30 -2 0
-17 -5 -33 -12 -15 -6 -34 -12 -41 -14 -34 -7 -106 -61 -190 -143 -133 -130
-172 -132 -172 -7 0 34 -5 68 -10 76 -8 12 -47 15 -232 18 -123 1 -263 -1
-313 -5 -65 -6 -4 -8 217 -8 168 0 310 -4 314 -8 5 -5 11 -42 15 -83 3 -41 11
-80 17 -86 6 -6 25 -8 46 -4 27 5 59 30 133 102 94 91 170 141 238 158 17 4
58 21 91 37 79 37 179 63 218 55 22 -4 27 -3 16 4 -20 13 -54 12 -118 -6z"/>
</g>
<g>
<path d="M4088 5080 c-132 -41 -243 -140 -307 -273 -22 -45 -42 -95 -45 -112
-5 -29 -5 -29 5 -5 37 88 94 192 129 232 80 93 214 161 335 171 35 3 33 4 -10
4 -27 1 -76 -7 -107 -17z"/>
</g>
<g>
<path d="M1705 5060 c-16 -3 81 -5 216 -5 156 0 221 3 179 7 -69 8 -345 6
-395 -2z"/>
</g>
<g>
<path d="M4863 5056 c16 -7 43 -37 65 -72 53 -84 84 -124 93 -118 5 3 -4 19
-19 35 -15 17 -45 61 -67 97 -34 57 -45 67 -70 69 l-30 1 28 -12z"/>
</g>
<g>
<path d="M5020 5062 c-38 -13 -39 -59 -3 -121 15 -25 26 -55 25 -66 l-2 -20 9
20 c9 21 1 43 -30 84 -11 13 -19 34 -19 47 0 52 -2 51 437 52 224 1 424 -2
443 -6 l35 -8 8 -79 c6 -57 14 -86 28 -100 12 -12 19 -15 19 -7 0 10 38 13
168 11 92 -1 232 -1 311 0 152 1 166 -3 157 -44 -2 -11 -16 -53 -30 -93 -26
-73 -58 -243 -58 -312 0 -20 14 -62 31 -95 17 -33 31 -65 31 -72 0 -6 18 -45
40 -86 38 -70 44 -76 110 -109 39 -19 70 -30 70 -26 0 5 -29 23 -64 39 -60 28
-68 36 -101 97 -21 36 -46 89 -57 117 -10 27 -27 68 -38 90 -18 39 -18 43 0
161 11 66 26 141 35 165 9 24 23 64 32 88 11 30 13 51 7 68 l-9 25 -150 -2
c-429 -6 -505 -5 -509 7 -3 6 -8 40 -11 75 -3 35 -8 73 -11 84 l-4 22 -442 0
c-244 0 -450 -3 -458 -6z"/>
</g>
<g>
<path d="M1670 5035 c0 -3 24 -33 54 -69 40 -46 51 -67 43 -75 -6 -6 -8 -13
-5 -17 4 -3 11 3 17 15 10 17 3 29 -45 85 -51 62 -64 73 -64 61z"/>
</g>
<g>
<path d="M2130 4995 c-17 -25 -34 -61 -37 -79 -5 -32 -4 -34 32 -40 21 -4 72
-7 113 -7 41 0 82 -4 91 -9 10 -5 23 -5 30 -1 24 15 2 64 -56 126 -65 69 -54
39 12 -35 25 -28 45 -56 45 -63 0 -9 -25 -12 -97 -10 -164 4 -187 15 -149 68
21 31 56 95 51 95 -2 0 -18 -20 -35 -45z"/>
</g>
<g>
<path d="M4138 5025 c-164 -42 -288 -152 -350 -312 -76 -197 -48 -521 60 -689
120 -185 311 -249 576 -195 55 11 103 24 107 28 11 12 18 554 8 582 -6 14 -15
21 -24 17 -8 -3 -17 -1 -20 4 -3 5 -19 5 -37 0 -17 -5 -36 -6 -42 -2 -16 10
-65 9 -59 -1 3 -5 15 -6 26 -3 12 3 26 1 32 -4 7 -6 24 -6 43 -1 18 6 34 6 37
1 3 -5 12 -7 19 -4 8 3 16 -3 19 -14 2 -11 3 -141 0 -289 -4 -218 -7 -270 -19
-279 -28 -22 -202 -46 -299 -42 -82 3 -101 8 -168 41 -136 67 -236 205 -274
377 -21 98 -21 315 1 399 58 227 261 391 484 391 73 0 165 -19 180 -38 17 -22
17 -202 -1 -202 -7 0 -18 9 -25 21 -31 50 -158 79 -254 59 -110 -24 -190 -107
-233 -242 -22 -68 -26 -101 -26 -193 1 -218 70 -369 200 -432 50 -25 67 -28
151 -28 75 1 101 5 123 20 l28 18 -3 179 -3 179 -54 49 c-30 27 -57 47 -60 44
-6 -6 57 -64 69 -64 3 0 13 -13 23 -29 14 -24 17 -56 17 -188 0 -201 3 -197
-138 -198 -113 0 -152 14 -219 81 -85 85 -123 200 -124 369 0 121 18 199 65
279 38 65 110 124 174 142 101 30 222 -2 262 -69 11 -18 20 -26 20 -19 0 6 7
12 15 12 12 0 15 17 15 93 0 122 -4 134 -49 147 -62 19 -210 21 -273 5z"/>
</g>
<g>
<path d="M2365 5006 c3 -15 15 -40 26 -55 17 -24 20 -47 24 -221 8 -358 8
-715 0 -745 -4 -16 -21 -54 -36 -83 -15 -29 -26 -58 -23 -65 3 -9 67 -11 257
-9 138 1 257 4 263 6 6 3 19 37 29 78 24 99 72 247 85 264 15 17 3 54 -16 54
-9 0 -43 -28 -77 -62 -34 -33 -79 -69 -99 -78 -21 -9 -35 -20 -32 -23 13 -12
83 34 143 93 64 65 90 72 66 17 -18 -42 -43 -122 -71 -231 -12 -49 -26 -92
-31 -97 -10 -10 -492 -14 -501 -4 -4 3 5 27 20 53 14 26 29 65 33 87 8 40 8
383 0 741 -4 190 -7 205 -47 274 -19 33 -19 34 -13 6z"/>
</g>
<g>
<path d="M2833 5019 c-7 -7 -78 -10 -199 -10 -104 0 -194 -3 -201 -7 -6 -4 80
-7 190 -7 l202 0 3 -97 c3 -102 -3 -114 -37 -84 -38 32 -141 47 -194 27 -31
-12 -38 -47 -38 -183 0 -82 3 -104 16 -111 8 -4 12 -13 9 -19 -4 -7 -2 -8 5
-4 6 4 9 11 6 16 -11 17 26 26 84 20 33 -3 57 -2 55 2 -3 4 -27 8 -54 8 -27 0
-52 5 -55 11 -5 6 -13 2 -22 -11 -25 -36 -34 -9 -34 102 0 153 9 168 97 168
49 0 102 -18 122 -42 7 -9 21 -14 32 -11 17 5 19 17 22 124 2 65 3 119 3 119
-1 0 -6 -5 -12 -11z"/>
</g>
<g>
<path d="M4496 5015 c-11 -28 -7 -34 33 -55 22 -10 49 -31 60 -46 20 -26 21
-36 21 -394 0 -216 4 -390 11 -424 40 -219 203 -333 387 -272 44 15 110 66 85
66 -6 0 -17 -7 -24 -17 -25 -30 -97 -55 -160 -54 -134 0 -248 114 -278 276 -7
35 -11 204 -11 424 0 401 0 399 -60 438 -52 34 -63 44 -53 54 4 4 26 4 48 -1
40 -8 270 -12 262 -4 -2 2 -64 6 -138 8 -74 2 -144 7 -155 11 -15 5 -23 2 -28
-10z"/>
</g>
<g>
<path d="M4850 5020 c0 -5 -16 -27 -35 -48 -19 -21 -39 -52 -46 -68 -17 -42
-25 -700 -10 -776 25 -119 85 -164 212 -159 14 1 46 14 71 31 42 28 65 63 84
129 8 32 8 705 0 758 -5 26 -20 55 -42 79 -19 22 -34 43 -34 48 0 5 -3 6 -6 3
-4 -4 -1 -13 6 -22 7 -8 9 -15 4 -15 -5 0 1 -7 12 -15 12 -8 29 -31 39 -51 15
-33 17 -76 17 -403 0 -357 0 -368 -22 -419 -17 -38 -34 -59 -68 -82 -25 -16
-55 -30 -66 -31 -90 -4 -140 22 -179 94 -22 41 -22 48 -22 412 0 204 4 382 8
397 4 15 25 48 47 73 35 40 51 75 35 75 -3 0 -5 -4 -5 -10z"/>
</g>
<g>
<path d="M5866 4993 c-3 -21 -5 -74 -4 -118 1 -75 1 -73 8 35 8 121 7 145 -4
83z"/>
</g>
<g>
<path d="M1782 5015 c-1 -5 8 -23 19 -40 51 -80 50 -63 47 -558 -2 -354 -6
-468 -16 -487 -33 -63 -42 -75 -59 -71 -17 3 -17 2 0 -17 17 -19 30 -20 278
-17 142 1 261 4 263 6 2 2 20 61 40 131 36 126 44 192 27 202 -5 4 -7 -10 -4
-31 3 -26 -7 -78 -31 -162 -20 -68 -38 -126 -41 -129 -7 -7 -497 -11 -508 -5
-4 3 3 20 17 38 45 58 47 91 44 582 l-3 461 -24 33 c-13 18 -24 38 -24 45 0 7
-4 11 -8 8 -4 -2 -10 2 -12 8 -3 7 -5 9 -5 3z"/>
</g>
<g>
<path d="M2037 5013 c-4 -3 -7 -11 -7 -17 0 -6 5 -5 12 2 6 6 9 14 7 17 -3 3
-9 2 -12 -2z"/>
</g>
<g>
<path d="M2045 4976 c-14 -24 -30 -59 -35 -76 -11 -39 -17 -837 -7 -867 6 -15
15 -20 33 -18 13 1 27 -1 29 -5 11 -17 111 -20 162 -5 48 14 133 78 121 90 -3
3 -21 -10 -41 -29 -49 -46 -120 -69 -186 -60 -28 4 -54 10 -57 15 -2 4 -11 6
-18 3 -7 -3 -19 3 -27 12 -12 14 -14 85 -11 418 1 221 5 415 8 431 4 17 15 42
26 58 11 15 17 27 13 27 -3 0 2 11 11 25 9 14 14 25 11 25 -4 0 -18 -20 -32
-44z"/>
</g>
<g>
<path d="M3264 5011 c-13 -13 5 -16 87 -13 50 2 95 0 100 -5 5 -5 31 -98 59
-208 99 -389 188 -696 231 -792 33 -74 77 -133 95 -126 9 3 3 13 -17 30 -71
60 -149 291 -300 893 -28 113 -55 209 -59 213 -8 9 -188 16 -196 8z"/>
</g>
<g>
<path d="M5296 5012 c-3 -6 1 -12 9 -16 13 -4 12 -12 -7 -48 -30 -57 -34 -156
-28 -639 l5 -376 25 -36 c14 -20 31 -37 39 -37 10 0 6 9 -11 28 -14 15 -31 37
-37 49 -7 14 -11 166 -11 481 -1 487 -4 455 41 552 8 18 -16 57 -25 42z"/>
</g>
<g>
<path d="M5384 4995 c9 -16 26 -42 38 -57 11 -15 24 -48 28 -74 4 -26 5 -239
3 -473 -4 -394 -6 -429 -23 -465 -23 -48 -19 -59 7 -20 16 25 19 63 25 389 8
405 3 585 -17 630 -8 16 -28 46 -46 65 -30 34 -31 34 -15 5z"/>
</g>
<g>
<path d="M3257 4952 c14 -36 13 -46 -17 -168 -30 -120 -92 -347 -177 -642 -28
-95 -47 -139 -85 -197 -27 -41 -46 -80 -43 -85 3 -6 1 -10 -6 -10 -9 0 -10 -3
-2 -11 5 -5 19 -10 29 -9 10 0 69 1 129 1 l110 1 -100 7 c-55 4 -107 4 -116 0
-19 -10 -37 1 -34 21 2 8 22 43 44 77 44 65 49 80 174 523 97 345 120 446 107
486 -6 18 -15 36 -20 39 -5 3 -2 -12 7 -33z"/>
</g>
<g>
<path d="M5345 4901 c-3 -15 -1 -38 4 -52 9 -21 10 -20 8 15 -1 22 3 41 9 43
14 5 28 -28 16 -36 -5 -3 -6 -15 -2 -26 7 -19 7 -19 14 3 11 33 0 69 -23 75
-15 4 -21 -1 -26 -22z"/>
</g>
<g>
<path d="M1650 4879 c-111 -9 -169 -11 -225 -7 -36 3 -40 1 -43 -23 -2 -14 11
-60 28 -102 53 -133 63 -243 37 -409 -22 -134 -49 -184 -130 -237 -35 -23 -80
-46 -98 -52 -37 -10 -189 -10 -189 1 0 16 -89 109 -96 99 -4 -8 -9 -7 -15 2
-6 10 -11 5 -20 -16 -8 -22 -9 -104 -4 -300 3 -148 6 -281 6 -295 1 -124 62
-423 98 -484 10 -17 26 -62 35 -100 19 -77 51 -145 125 -261 l51 -79 0 -155
c0 -134 -3 -160 -20 -195 -26 -55 -132 -170 -169 -186 -16 -6 -32 -18 -35 -25
-11 -29 87 41 139 98 88 99 90 105 90 307 l0 175 -51 80 c-72 113 -110 191
-124 260 -8 33 -23 78 -36 100 -38 67 -92 341 -92 465 0 14 -4 138 -8 276 -7
263 -3 324 21 320 20 -3 62 -44 88 -85 11 -19 22 -30 24 -25 2 5 26 7 54 5
100 -6 153 7 232 58 63 41 76 56 96 100 27 65 54 223 52 314 -3 102 -21 180
-71 303 -8 17 -10 38 -7 48 8 20 50 21 67 1 9 -10 17 -12 30 -5 10 5 71 13
135 16 63 4 118 11 121 16 3 4 4 7 2 7 -2 -1 -46 -5 -98 -10z"/>
</g>
<g>
<path d="M5602 4850 c-13 -21 -15 -226 -3 -270 4 -14 5 34 3 106 -3 90 -1 138
8 153 15 28 8 37 -8 11z"/>
</g>
<g>
<path d="M5697 4849 c74 -9 133 -31 133 -50 0 -6 5 -7 11 -3 18 11 -30 42 -84
54 -26 5 -67 9 -90 9 -31 -1 -23 -4 30 -10z"/>
</g>
<g>
<path d="M3351 4774 c0 -12 -19 -84 -41 -160 -50 -169 -52 -180 -35 -194 8 -6
11 -19 9 -28 -3 -9 3 -5 12 11 10 15 23 27 29 28 5 0 34 1 64 3 64 3 86 23 70
64 -5 14 -25 84 -44 156 -19 72 -34 120 -34 106 0 -14 17 -84 38 -157 20 -73
34 -138 30 -144 -4 -7 -35 -14 -69 -15 -34 -2 -68 -8 -76 -15 -39 -32 -34 19
16 185 22 76 39 148 37 160 l-4 21 -2 -21z"/>
</g>
<g>
<path d="M2751 4558 c7 -14 10 -52 7 -107 -3 -48 -2 -77 3 -66 4 11 8 57 8
101 1 65 -2 83 -14 88 -13 5 -14 2 -4 -16z"/>
</g>
<g>
<path d="M5643 4570 c-33 -13 -28 -21 5 -9 17 6 46 6 75 0 27 -5 45 -5 40 -1
-14 13 -97 20 -120 10z"/>
</g>
<g>
<path d="M5780 4575 c0 -6 5 -16 11 -22 8 -8 10 -43 7 -102 -2 -50 -1 -85 4
-78 14 22 9 171 -7 193 -8 10 -15 14 -15 9z"/>
</g>
<g>
<path d="M6256 4491 c-27 -30 -33 -69 -30 -211 3 -134 3 -135 27 -138 20 -3
25 2 31 29 3 18 3 54 0 79 -5 41 -3 50 20 75 15 16 24 35 21 43 -3 7 -5 17 -5
22 0 4 -10 11 -22 14 -22 7 -22 8 -5 19 47 31 48 33 42 60 -6 21 -13 27 -35
27 -15 0 -34 -8 -44 -19z m68 -8 c7 -16 -16 -43 -35 -43 -20 0 -15 -33 9 -55
l27 -26 -25 -19 c-22 -17 -25 -27 -26 -87 -1 -98 -2 -105 -19 -101 -12 2 -16
28 -19 133 -2 72 1 141 6 155 20 54 68 79 82 43z"/>
</g>
<g>
<path d="M1546 4415 c-3 -9 -6 -25 -6 -35 0 -10 -5 -31 -11 -47 -6 -15 -12
-44 -13 -63 -2 -19 -17 -59 -34 -88 -18 -29 -32 -55 -32 -58 0 -2 -12 -23 -26
-45 -14 -23 -23 -43 -20 -46 5 -5 41 51 71 112 11 22 25 47 32 55 6 8 17 42
22 75 6 33 15 80 20 105 10 46 8 63 -3 35z"/>
</g>
<g>
<path d="M2569 4389 c-5 -10 -9 -97 -9 -193 0 -163 5 -198 26 -164 4 7 3 8 -4
4 -14 -8 -17 320 -4 341 12 19 95 27 133 14 27 -9 31 -9 21 1 -8 8 -40 13 -83
14 -57 0 -72 -3 -80 -17z"/>
</g>
<g>
<path d="M6090 4399 c-55 -20 -79 -102 -55 -184 18 -63 47 -88 96 -83 47 5 72
44 77 122 5 74 -15 127 -54 145 -29 13 -30 13 -64 0z m69 -20 c44 -41 55 -127
23 -188 -21 -43 -42 -56 -75 -47 -32 8 -52 36 -68 97 -11 42 -10 50 11 93 31
65 70 81 109 45z"/>
<g>
<path d="M6080 4314 c-14 -35 -12 -60 4 -93 26 -50 86 -22 86 40 0 53 -17 79
-50 79 -24 0 -33 -6 -40 -26z m70 -3 c33 -62 -17 -136 -56 -83 -27 35 -10 102
26 102 11 0 24 -9 30 -19z"/>
</g>
</g>
<g>
<path d="M5613 4389 c-14 -14 -19 -344 -5 -352 4 -3 6 69 4 160 -2 116 0 168
9 179 19 24 157 16 142 -9 -4 -6 -1 -7 6 -2 25 15 -9 29 -77 33 -45 2 -71 0
-79 -9z"/>
</g>
<g>
<path d="M3220 4250 c-21 -39 -79 -302 -73 -330 3 -19 17 -36 39 -49 23 -14
31 -16 28 -6 -3 8 -15 17 -25 20 -40 13 -42 49 -9 184 38 156 46 178 73 185
12 3 70 6 130 6 90 0 110 -3 125 -18 20 -20 82 -239 82 -290 0 -35 -26 -57
-50 -42 -11 7 -23 -1 -45 -27 -37 -45 -54 -74 -55 -93 0 -8 8 -1 18 17 9 17
30 46 45 64 25 28 32 31 47 21 16 -10 22 -8 35 10 8 13 15 36 15 54 0 37 -66
282 -81 300 -8 10 -48 13 -150 12 -124 0 -140 -2 -149 -18z"/>
</g>
<g>
<path d="M5927 4165 c-38 -41 -75 -75 -83 -75 -8 0 -14 -4 -14 -10 0 -25 31
-4 106 75 45 47 77 85 70 85 -6 0 -42 -34 -79 -75z"/>
</g>
<g>
<path d="M2320 4154 c-30 -25 -77 -57 -103 -70 -27 -14 -47 -27 -45 -30 11
-10 110 49 159 95 68 63 62 66 -11 5z"/>
</g>
<g>
<path d="M5991 4154 c-12 -19 -21 -48 -20 -62 1 -26 -33 -200 -46 -234 -11
-27 -58 -31 -296 -25 -122 3 -218 3 -215 0 3 -4 118 -8 256 -10 230 -3 250 -2
258 14 14 26 54 223 53 258 -1 19 8 40 24 57 14 15 21 29 16 32 -5 3 -19 -10
-30 -30z"/>
</g>
<g>
<path d="M7052 4149 c-12 -21 -36 -49 -52 -61 -39 -29 -39 -46 0 -18 35 25 94
106 82 114 -4 2 -18 -13 -30 -35z"/>
</g>
<g>
<path d="M7106 4155 c3 -22 1 -71 -4 -108 -5 -38 -5 -139 0 -225 6 -118 4
-193 -7 -302 -18 -177 -21 -190 -50 -265 -13 -33 -30 -100 -39 -149 -8 -49
-25 -109 -37 -133 -26 -53 -27 -75 -5 -139 41 -123 39 -297 -4 -437 -26 -82
-105 -202 -173 -262 -103 -90 -242 -145 -368 -145 -131 0 -300 46 -355 97
l-28 26 -125 -14 c-137 -14 -345 -18 -401 -8 -19 4 -55 4 -80 -1 -43 -7 -41
-7 25 -8 264 -6 344 -4 452 7 112 12 123 12 139 -3 30 -30 58 -45 124 -65 202
-61 346 -54 505 24 185 91 298 265 325 501 8 74 -1 230 -14 253 -2 3 -11 29
-19 57 -13 43 -13 56 -2 77 20 40 43 117 55 191 6 38 21 95 34 126 28 69 32
88 51 270 11 108 13 184 6 300 -4 90 -4 189 2 237 6 55 6 91 -1 110 -10 26
-11 25 -6 -12z"/>
</g>
<g>
<path d="M2881 4075 c-45 -58 -122 -77 -219 -55 -24 6 -49 7 -57 3 -16 -9 46
-16 145 -17 71 0 111 16 143 61 26 33 15 41 -12 8z"/>
</g>
<g>
<path d="M5911 4067 c-38 -45 -84 -60 -166 -54 -38 4 -81 9 -95 12 l-25 6 25
-11 c38 -17 150 -24 195 -11 40 10 115 74 98 84 -4 2 -19 -9 -32 -26z"/>
</g>
<g>
<path d="M6910 4049 c-14 -6 -43 -14 -65 -19 -34 -7 -36 -8 -10 -8 17 0 53 8
80 18 28 10 43 19 35 19 -8 0 -26 -5 -40 -10z"/>
</g>
<g>
<path d="M6366 4020 c-106 -29 -229 -125 -270 -211 l-16 -34 22 29 c125 162
263 235 418 223 34 -3 59 -2 56 1 -15 15 -145 10 -210 -8z"/>
</g>
<g>
<path d="M6485 3969 c-224 -25 -376 -149 -426 -349 -21 -86 -17 -222 10 -310
43 -143 115 -222 333 -368 153 -102 234 -177 267 -245 77 -159 -50 -369 -227
-375 -130 -5 -293 80 -364 189 -35 54 -49 59 -23 8 59 -112 245 -212 387 -207
142 5 260 127 260 269 0 146 -57 215 -317 389 -244 163 -327 288 -329 500 -1
145 26 232 99 321 128 154 366 211 595 142 30 -9 60 -20 67 -25 10 -8 12 -120
4 -326 -1 -7 -25 11 -53 40 -65 65 -133 91 -241 91 -147 1 -222 -71 -222 -213
0 -49 6 -77 25 -114 26 -51 120 -145 173 -173 66 -34 199 -124 243 -165 80
-74 146 -185 174 -295 14 -55 14 -215 0 -277 -26 -118 -109 -236 -216 -309
-136 -93 -273 -117 -439 -78 -116 28 -170 54 -183 89 -16 39 -41 221 -44 310
-1 23 -5 42 -10 42 -5 0 -7 -12 -4 -27 3 -16 8 -62 12 -103 12 -142 32 -233
56 -257 13 -12 63 -34 113 -49 73 -22 110 -28 200 -28 96 -1 120 3 183 26 178
66 301 205 343 388 13 59 13 216 -2 277 -6 26 -29 86 -51 132 -54 113 -144
202 -293 291 -125 74 -204 142 -243 209 -37 64 -38 156 -2 221 38 68 94 95
195 93 56 -1 94 -7 127 -21 52 -23 124 -84 133 -113 5 -14 11 -17 23 -10 13 8
16 33 18 167 1 88 0 167 -2 176 -7 24 -129 59 -249 72 -16 2 -61 0 -100 -5z"/>
</g>
<g>
<path d="M1732 3888 c-34 -44 -62 -87 -62 -93 0 -7 8 -22 18 -33 17 -20 17
-20 50 24 25 34 28 42 12 34 -11 -6 -24 -19 -30 -30 -6 -11 -16 -17 -25 -14
-22 9 -19 17 23 71 76 96 94 123 86 123 -5 0 -37 -37 -72 -82z"/>
</g>
<g>
<path d="M1185 3909 c-5 -14 1 -28 19 -46 14 -14 30 -42 35 -62 5 -20 12 -259
15 -531 3 -272 9 -587 13 -700 7 -230 0 -279 -48 -355 -16 -26 -24 -45 -17
-43 7 3 27 31 43 64 30 59 30 60 30 229 0 416 -18 1304 -27 1340 -5 22 -21 52
-35 67 -22 23 -24 30 -13 43 7 9 8 15 2 15 -6 0 -14 -9 -17 -21z"/>
</g>
<g>
<path d="M1270 3923 c132 -7 290 -7 290 0 0 4 -78 6 -172 5 -95 -1 -148 -3
-118 -5z"/>
</g>
<g>
<path d="M1550 3880 c-12 -17 -31 -56 -41 -87 -19 -53 -21 -92 -26 -728 -5
-525 -3 -674 6 -679 19 -12 124 -21 236 -21 92 1 105 3 168 33 60 30 176 127
164 139 -3 2 -27 -18 -54 -45 -68 -67 -167 -114 -256 -120 -61 -4 -207 11
-243 25 -12 4 -14 78 -13 457 0 248 4 557 7 686 l7 235 38 68 c40 71 43 88 7
37z"/>
</g>
<g>
<path d="M5110 3879 c-1 -39 22 -48 131 -52 58 -2 112 -7 120 -12 12 -7 12 -6
1 6 -7 8 -30 14 -50 15 -20 1 -67 2 -104 3 -63 1 -68 3 -82 29 -9 16 -15 21
-16 11z"/>
</g>
<g>
<path d="M5387 3861 c-2 -10 -1 -25 4 -32 6 -10 9 -4 9 19 0 36 -5 42 -13 13z"/>
</g>
<g>
<path d="M3510 3851 c0 -21 35 -29 85 -20 28 5 92 8 143 6 50 -2 92 0 92 4 0
10 -248 5 -271 -5 -10 -4 -23 -1 -33 9 -9 9 -16 12 -16 6z"/>
</g>
<g>
<path d="M3485 3794 c-24 -37 -14 -39 17 -4 16 18 21 30 13 30 -7 0 -20 -12
-30 -26z"/>
</g>
<g>
<path d="M6890 3780 c-25 -25 -28 -101 -5 -120 21 -17 62 -21 73 -7 17 21 21
71 9 106 -15 41 -48 50 -77 21z m47 2 c19 -12 34 -61 27 -88 -4 -13 -15 -29
-26 -35 -46 -24 -78 58 -42 109 16 24 22 26 41 14z"/>
</g>
<g>
<path d="M3150 3743 c-35 -6 -153 -49 -198 -72 -51 -26 -150 -125 -168 -167
-19 -46 -17 -55 4 -19 41 72 58 95 66 95 5 0 24 16 43 35 19 19 47 42 63 50
62 32 173 67 220 68 26 1 46 5 43 10 -4 7 -30 7 -73 0z"/>
</g>
<g>
<path d="M3245 3683 c-151 -14 -268 -66 -364 -162 -110 -110 -168 -249 -178
-423 -10 -165 28 -363 95 -498 35 -70 132 -170 200 -204 85 -43 205 -69 287
-63 116 9 274 47 280 67 10 32 13 614 4 633 -9 15 -24 17 -127 15 l-117 -2
115 -3 c69 -2 117 -8 121 -15 5 -8 4 -459 -1 -603 -1 -27 -26 -38 -136 -61
-139 -28 -189 -30 -280 -8 -233 54 -371 225 -420 524 -21 125 -14 289 16 383
42 134 125 246 238 321 116 77 237 102 376 78 122 -20 116 -12 118 -160 l2
-127 4 115 c4 152 3 156 -55 169 -78 17 -146 26 -178 24z"/>
</g>
<g>
<path d="M3593 3656 c9 -7 17 -18 17 -23 0 -5 9 -18 21 -29 46 -41 46 -45 52
-569 7 -495 6 -501 -14 -540 -12 -22 -28 -48 -37 -58 -14 -16 -25 -47 -17 -47
2 0 19 25 39 55 25 37 38 70 42 102 2 27 1 265 -3 530 -8 481 -8 482 -31 510
-12 15 -30 40 -40 55 -9 16 -24 28 -32 28 -12 -1 -12 -3 3 -14z"/>
</g>
<g>
<path d="M2140 3650 c-41 -6 -46 -24 -16 -58 20 -23 21 -39 28 -375 4 -194 6
-428 5 -522 l-2 -170 -33 -57 c-36 -65 -41 -97 -14 -99 9 -1 138 -2 285 -3
245 -2 269 -1 278 15 5 10 18 63 28 119 11 56 27 115 36 132 17 36 18 38 7 38
-11 0 -38 -88 -52 -170 -16 -90 -28 -117 -53 -123 -34 -7 -525 -2 -533 6 -4 4
8 37 27 74 l34 67 2 170 c1 94 -1 329 -5 521 -7 343 -7 351 -30 388 l-24 37
34 1 c18 1 124 1 236 1 111 0 201 3 198 6 -7 6 -391 8 -436 2z"/>
</g>
<g>
<path d="M4233 3649 c9 -6 15 -14 12 -20 -4 -5 1 -12 10 -15 8 -4 26 -25 40
-48 24 -40 24 -47 30 -346 4 -168 6 -385 6 -483 -1 -198 -6 -220 -67 -294 -19
-24 -31 -43 -25 -43 17 0 80 90 91 130 18 67 9 966 -11 1017 -12 33 -78 113
-93 113 -6 0 -3 -5 7 -11z"/>
</g>
<g>
<path d="M4288 3649 c-13 -4 21 -6 75 -6 l99 0 52 -94 c28 -52 68 -121 88
-154 94 -156 311 -572 337 -645 6 -18 14 -31 17 -28 14 15 -171 385 -323 645
-31 54 -81 140 -110 192 l-52 94 -80 1 c-44 1 -90 -2 -103 -5z"/>
</g>
<g>
<path d="M4873 3649 c9 -5 17 -16 17 -23 0 -7 9 -21 21 -32 45 -40 46 -52 53
-444 4 -206 7 -393 7 -415 0 -38 1 -38 8 -10 3 17 4 82 0 145 -4 63 -8 235 -8
382 -1 151 -5 278 -11 293 -12 32 -81 115 -95 115 -5 0 -2 -5 8 -11z"/>
</g>
<g>
<path d="M4925 3650 c-9 -3 33 -6 94 -6 61 0 108 2 106 4 -7 8 -180 9 -200 2z"/>
</g>
<g>
<path d="M5207 3640 c-21 -17 -21 -17 7 -35 53 -35 53 -33 60 -570 l7 -499
-33 -65 c-18 -35 -41 -66 -51 -69 -16 -4 -16 -6 5 -20 18 -13 62 -17 224 -20
184 -4 209 -3 271 16 38 12 88 35 111 52 84 60 175 211 218 360 15 53 19 98
19 245 0 171 -2 184 -29 265 -36 109 -81 183 -151 249 -99 94 -169 110 -454
108 -155 -1 -187 -3 -204 -17z m453 -1 c85 -13 149 -49 220 -126 68 -72 112
-158 142 -275 18 -72 20 -102 15 -238 -6 -178 -21 -242 -87 -368 -57 -110
-132 -191 -212 -228 l-63 -29 -227 0 c-124 0 -229 3 -233 7 -4 3 7 25 24 49
17 23 36 60 42 81 10 38 4 954 -7 1026 -3 18 -19 48 -35 65 -26 26 -28 32 -14
37 29 10 367 9 435 -1z"/>
<g>
<path d="M5512 3463 c-71 -7 -69 3 -76 -453 -4 -223 -3 -417 1 -432 4 -15 9
168 11 405 4 506 -5 469 113 470 60 0 83 -5 125 -26 103 -52 152 -139 180
-322 14 -86 14 -118 5 -181 -16 -109 -73 -226 -137 -283 -74 -65 -98 -74 -190
-75 -48 -1 -81 -5 -81 -11 0 -15 153 0 197 19 115 48 205 198 225 377 12 95
-31 313 -74 383 -58 94 -167 141 -299 129z"/>
</g>
<g>
<path d="M5786 2782 c-13 -40 -113 -123 -177 -148 -40 -15 -51 -22 -29 -18 69
13 111 37 165 96 30 32 55 66 55 74 0 19 -7 18 -14 -4z"/>
</g>
</g>
<g>
<path d="M2594 3633 c3 -10 7 -71 8 -136 1 -67 5 -112 10 -103 4 8 6 29 4 48
-3 18 -5 72 -5 121 -1 54 -5 87 -12 87 -6 0 -8 -8 -5 -17z"/>
</g>
<g>
<path d="M3895 3643 l235 -3 0 -128 c0 -70 4 -122 8 -116 4 7 5 65 2 130 l-5
119 -238 0 -237 1 235 -3z"/>
</g>
<g>
<path d="M5145 3630 c4 -13 -2 -31 -18 -52 -13 -18 -27 -46 -31 -62 -8 -33
-18 -1211 -10 -1204 2 3 6 270 9 594 2 324 7 598 11 609 4 11 20 39 36 62 17
25 24 44 18 48 -6 4 -8 11 -5 16 4 5 1 9 -5 9 -7 0 -9 -8 -5 -20z"/>
</g>
<g>
<path d="M7001 3621 c-6 -11 -18 -71 -26 -133 -20 -153 -40 -237 -101 -428 -3
-9 -2 -11 4 -5 24 29 87 278 106 426 8 58 19 116 26 128 6 13 9 25 7 28 -3 2
-10 -5 -16 -16z"/>
</g>
<g>
<path d="M6578 3503 c-7 -15 -23 -32 -36 -39 -12 -6 -40 -27 -63 -47 -34 -31
-38 -39 -29 -56 11 -21 30 -37 30 -25 0 4 -7 15 -15 24 -13 14 -10 20 28 51
23 20 52 41 64 47 22 12 58 72 43 72 -5 0 -15 -12 -22 -27z"/>
</g>
<g>
<path d="M3123 3486 c-94 -30 -175 -126 -220 -261 -23 -69 -26 -98 -27 -210
-1 -150 16 -224 70 -316 76 -127 178 -183 324 -177 71 2 91 7 119 27 l34 24
-7 174 c-4 96 -12 186 -17 201 -13 33 -101 119 -131 127 -22 6 -22 5 -3 -6 29
-18 110 -100 123 -125 6 -11 14 -96 18 -190 l6 -169 -27 -25 c-23 -22 -38 -25
-110 -29 -120 -5 -173 15 -251 93 -106 107 -150 239 -141 421 7 124 34 214 90
297 76 113 155 154 279 146 74 -6 146 -40 174 -83 9 -14 21 -22 26 -19 18 12
-72 83 -124 99 -62 18 -148 18 -205 1z"/>
</g>
<g>
<path d="M3880 3471 c-18 -5 -26 -16 -32 -41 -8 -37 -2 -249 7 -258 6 -6 63
-12 145 -15 l55 -2 0 -93 c0 -50 3 -84 7 -75 3 10 7 60 7 111 1 79 -1 91 -13
80 -8 -9 -32 -13 -62 -12 -58 3 -126 12 -133 19 -11 12 -6 254 6 266 16 16
106 18 163 4 33 -8 51 -20 68 -45 17 -26 22 -29 22 -13 0 28 -39 59 -85 68
-57 10 -126 13 -155 6z"/>
</g>
<g>
<path d="M2344 3460 c-20 -8 -22 -18 -26 -117 -2 -59 -1 -124 2 -143 6 -38 -8
-34 150 -42 l55 -3 -1 -104 c0 -57 3 -95 7 -85 4 11 8 63 8 117 1 82 -1 97
-13 90 -18 -10 -181 -1 -192 10 -5 4 -7 63 -6 130 3 142 6 147 91 146 77 0
121 -18 148 -58 18 -27 23 -30 23 -14 0 27 -37 59 -85 72 -47 13 -131 13 -161
1z"/>
</g>
<g>
<path d="M4486 3255 c3 -16 56 -118 118 -225 63 -107 153 -269 202 -360 48
-91 102 -187 120 -215 42 -66 109 -142 126 -142 8 0 -7 21 -32 46 -65 65 -98
119 -245 396 -26 50 -96 173 -155 275 -60 102 -115 201 -124 220 -16 34 -16
34 -10 5z"/>
</g>
<g>
<path d="M4454 3234 c-4 -21 -7 -187 -8 -369 -1 -294 1 -335 17 -376 16 -43
67 -105 67 -82 0 6 -7 16 -16 24 -8 7 -25 30 -36 52 -17 34 -20 65 -25 226 -2
102 0 269 5 371 5 102 8 187 6 189 -1 1 -6 -14 -10 -35z"/>
</g>
<g>
<path d="M3192 3027 c-14 -157 -14 -162 7 -231 11 -37 21 -85 21 -106 0 -22 4
-41 9 -44 12 -8 2 77 -16 139 -21 70 -27 146 -15 200 5 25 6 47 2 50 -3 2 -7
-1 -8 -8z"/>
</g>
<g>
<path d="M1916 2976 c-3 -13 -26 -40 -51 -61 -26 -20 -44 -39 -41 -42 14 -14
116 92 116 122 0 16 -19 2 -24 -19z"/>
</g>
<g>
<path d="M2348 2983 c-20 -3 -28 -12 -33 -32 -9 -40 -10 -359 -1 -368 3 -4 14
-8 24 -9 9 -2 45 -8 80 -15 65 -12 149 -6 186 13 28 14 75 59 88 83 6 11 -12
-1 -39 -27 -73 -68 -135 -81 -260 -54 -34 7 -65 11 -68 8 -3 -3 -5 10 -6 29 0
19 -1 61 -1 94 -3 128 3 241 12 255 10 16 130 21 165 7 11 -5 9 -1 -5 7 -24
14 -82 18 -142 9z"/>
</g>
<g>
<path d="M3887 2983 c-5 -8 141 -9 149 0 2 2 -29 5 -70 6 -41 1 -76 -2 -79 -6z"/>
</g>
<g>
<path d="M3852 2968 c-12 -15 -14 -59 -13 -256 1 -108 4 -142 14 -141 6 2 45
-3 86 -10 75 -14 157 -9 195 11 30 15 76 60 76 74 0 6 -17 -5 -38 -26 -57 -57
-122 -71 -238 -49 -32 7 -65 12 -71 12 -20 1 -21 344 -2 379 11 21 6 24 -9 6z"/>
</g>
<g>
<path d="M4277 2785 c7 -11 5 -31 -3 -58 -8 -23 -22 -78 -33 -122 -11 -44 -27
-110 -37 -148 -9 -37 -20 -70 -25 -73 -5 -2 -126 -7 -271 -10 -144 -3 -265 -7
-267 -10 -7 -6 537 4 548 10 4 3 16 40 25 83 10 43 27 108 37 145 11 36 19 75
19 85 0 10 6 27 13 38 17 26 16 67 -2 73 -10 3 -11 0 -4 -13z"/>
</g>
<g>
<path d="M4201 2729 c-24 -28 -65 -64 -90 -80 -51 -33 -48 -38 7 -10 44 23
158 141 136 141 -5 0 -29 -23 -53 -51z"/>
</g>
<g>
<path d="M6204 2704 c-10 -41 -21 -53 -62 -60 -32 -6 -77 -34 -55 -34 5 0 14
5 20 11 6 6 32 12 56 13 25 0 43 4 40 8 -2 4 1 24 6 45 6 20 9 39 6 41 -2 2
-7 -9 -11 -24z"/>
</g>
<g>
<path d="M2011 2582 c-55 -54 -96 -84 -165 -118 -50 -25 -93 -48 -96 -51 -3
-4 1 -3 8 1 7 4 12 2 12 -6 0 -9 3 -10 8 -2 4 6 36 26 72 44 70 35 128 77 202
149 26 24 50 42 54 39 8 -9 -22 -127 -46 -180 -11 -24 -20 -56 -20 -71 0 -38
-50 -233 -64 -252 -10 -14 -60 -15 -408 -15 -218 0 -403 3 -411 6 -8 3 -17 1
-21 -4 -7 -11 -48 -10 428 -12 225 -1 412 2 417 7 12 12 69 232 69 268 0 17 9
49 20 72 18 42 50 153 50 178 0 7 -8 14 -17 16 -12 3 -45 -22 -92 -69z"/>
</g>
<g>
<path d="M6600 2466 c-36 -41 -99 -75 -137 -76 -12 0 -24 -4 -27 -8 -6 -11 17
-8 73 7 45 13 137 89 130 107 -2 5 -20 -8 -39 -30z"/>
</g>
<g>
<path d="M5182 2461 c-18 -22 -32 -50 -31 -63 1 -21 1 -22 7 -3 4 11 20 37 36
58 39 51 28 57 -12 8z"/>
</g>
<g>
<path d="M4232 2380 c4 -12 27 -15 114 -16 60 -1 127 1 149 5 22 4 -22 6 -100
5 -92 -1 -145 2 -154 10 -11 9 -13 8 -9 -4z"/>
</g>
<g>
<path d="M3340 2252 c-54 -3 -80 -15 -80 -35 0 -5 9 -2 20 8 18 16 41 18 208
19 169 1 193 -2 252 -22 35 -12 77 -34 92 -49 16 -15 36 -28 45 -29 32 -5 60
-26 77 -57 13 -26 15 -27 10 -7 -9 35 -24 51 -63 67 -19 8 -50 27 -70 42 -62
47 -139 64 -296 66 -77 0 -165 -1 -195 -3z"/>
</g>
<g>
<path d="M5313 2101 c-9 -14 -64 -16 -463 -18 -566 -2 -594 -6 -741 -115 -52
-38 -68 -57 -78 -88 -6 -22 -16 -40 -21 -40 -5 0 -7 -7 -3 -16 7 -20 19 -4 33
47 8 28 26 48 78 86 151 113 160 114 733 116 376 2 458 4 476 16 18 12 24 13
37 2 9 -8 16 -10 16 -5 -1 30 -51 41 -67 15z"/>
</g>
<g>
<path d="M2025 2070 c-8 -15 -25 -30 -38 -34 -13 -3 -234 -5 -491 -5 -258 0
-470 -2 -473 -5 -3 -3 218 -5 492 -5 l497 0 16 30 c21 36 30 40 78 29 22 -5
374 -9 784 -9 699 0 749 -2 812 -19 120 -34 214 -106 262 -199 9 -18 19 -33
21 -33 12 0 2 22 -37 80 -52 79 -128 130 -237 159 -77 21 -99 22 -848 25 -422
2 -780 6 -796 9 -23 4 -30 1 -42 -23z"/>
</g>
<g>
<path d="M4715 1643 c-62 -23 -87 -40 -129 -89 -138 -164 -183 -450 -111 -699
47 -160 116 -254 223 -302 67 -31 169 -35 240 -9 187 68 305 312 289 599 -13
235 -107 417 -252 487 -67 32 -189 38 -260 13z m264 -28 c95 -52 179 -173 216
-310 9 -33 19 -109 22 -170 7 -145 -13 -252 -67 -362 -76 -154 -186 -234 -322
-236 -65 -1 -80 3 -137 33 -136 73 -223 246 -238 471 -11 182 34 360 123 478
74 99 146 133 269 128 66 -3 90 -8 134 -32z"/>
<g>
<path d="M4774 1534 c-50 -17 -88 -62 -115 -138 -17 -49 -23 -91 -26 -206 -11
-336 84 -565 225 -546 62 8 97 38 131 109 36 78 51 164 51 298 0 325 -115 534
-266 483z m133 -46 c72 -70 112 -197 120 -385 7 -165 -7 -266 -50 -346 -35
-66 -72 -97 -126 -104 -32 -4 -43 0 -74 26 -48 42 -84 109 -110 201 -17 63
-21 105 -21 265 -1 178 1 194 23 249 26 64 86 132 123 138 38 6 80 -10 115
-44z"/>
</g>
<g>
<path d="M5034 1454 c49 -97 68 -185 73 -354 7 -192 -11 -279 -74 -370 l-17
-25 27 24 c15 14 36 52 49 90 21 59 23 84 23 246 -1 152 -4 193 -22 262 -22
83 -63 176 -84 188 -6 4 5 -24 25 -61z"/>
</g>
<g>
<path d="M4577 1397 c-83 -207 -73 -468 24 -635 43 -76 46 -59 3 22 -48 89
-63 149 -70 276 -8 119 10 231 52 334 13 32 22 61 20 63 -2 2 -15 -25 -29 -60z"/>
</g>
</g>
<g>
<path d="M1811 1626 c-7 -8 -11 -32 -9 -52 3 -33 8 -41 43 -58 l40 -21 6 -91
c4 -50 6 -226 5 -390 -1 -228 -4 -305 -14 -322 -8 -13 -11 -26 -9 -29 3 -2 11
6 19 19 14 26 21 541 9 723 l-6 99 -40 20 c-30 16 -41 28 -43 49 -7 56 -1 57
253 57 l232 0 61 -31 c106 -53 185 -161 222 -303 28 -109 34 -208 21 -310 -30
-226 -145 -382 -314 -424 -48 -12 -404 -17 -445 -6 -42 12 -41 81 1 102 l22
11 -23 -3 c-29 -3 -42 -22 -42 -59 0 -65 -2 -65 228 -66 222 -2 272 4 353 45
164 82 264 341 230 595 -31 233 -123 385 -267 439 -49 18 -78 20 -288 20 -190
0 -236 -3 -245 -14z"/>
</g>
<g>
<path d="M2651 1607 c-14 -42 0 -87 27 -87 9 0 28 -7 40 -16 l22 -15 0 -393
c0 -430 2 -412 -58 -431 -49 -14 -51 -98 -4 -116 15 -6 93 -9 174 -8 166 2
169 3 164 72 -3 36 -10 51 -24 52 -28 3 -53 21 -59 43 -10 34 -9 728 0 765 5
18 20 33 45 45 32 15 37 22 38 52 1 70 2 70 -179 68 l-162 -2 158 -3 c155 -3
158 -4 167 -27 14 -38 6 -60 -30 -78 -19 -10 -38 -25 -43 -35 -12 -20 -15
-731 -4 -784 6 -28 14 -37 42 -48 19 -7 35 -15 36 -19 0 -4 2 -19 4 -33 7 -50
-4 -54 -151 -57 -158 -4 -181 0 -196 33 -13 30 12 75 42 75 10 0 26 10 34 22
14 19 16 76 16 411 0 238 -4 396 -10 407 -5 10 -23 21 -40 25 -40 9 -55 37
-41 77 6 17 9 33 7 35 -2 3 -9 -11 -15 -30z"/>
</g>
<g>
<path d="M3055 1629 c-11 -18 -13 -71 -3 -91 5 -10 17 -18 27 -18 10 0 29 -9
42 -19 l24 -19 4 -337 c4 -439 0 -472 -62 -477 -16 -1 -33 -10 -38 -20 -10
-18 -7 -77 4 -95 8 -13 309 -17 351 -5 57 16 56 105 -1 118 -15 3 -38 13 -50
20 -22 14 -23 20 -23 159 l0 145 26 10 c14 6 48 10 76 10 175 0 282 116 282
305 0 139 -56 248 -149 295 -48 24 -58 25 -276 28 -171 3 -229 1 -234 -9z
m501 -26 c166 -89 202 -373 65 -510 -46 -46 -97 -66 -193 -74 -47 -4 -91 -10
-97 -14 -7 -4 -11 -59 -11 -154 0 -162 6 -182 56 -188 29 -4 64 -35 64 -57 0
-7 -6 -21 -14 -32 -13 -17 -28 -19 -184 -19 -94 0 -173 3 -177 7 -3 3 -9 20
-11 36 -6 35 16 62 51 62 48 0 50 16 50 436 0 425 1 417 -56 429 -30 7 -50 37
-43 63 14 46 0 44 237 40 206 -3 225 -5 263 -25z"/>
<g>
<path d="M3211 1538 c17 -32 17 -855 0 -886 -7 -13 -8 -22 -2 -22 21 0 24 58
24 465 0 404 -3 465 -24 465 -6 0 -5 -10 2 -22z"/>
</g>
<g>
<path d="M3353 1520 c-30 -12 -34 -46 -31 -235 l3 -160 60 1 c106 1 145 51
145 187 0 90 -14 140 -48 177 -30 31 -91 46 -129 30z m123 -46 c36 -40 44 -69
44 -166 0 -118 -55 -184 -148 -176 l-37 3 -3 172 c-2 164 -1 174 19 194 30 30
84 19 125 -27z"/>
</g>
<g>
<path d="M3565 1504 c28 -68 34 -99 35 -185 0 -81 -4 -103 -24 -143 -13 -26
-19 -45 -12 -43 6 2 19 24 28 48 32 84 16 310 -24 335 -8 5 -9 1 -3 -12z"/>
</g>
</g>
<g>
<path d="M3742 1628 c-16 -16 -15 -83 1 -96 6 -6 25 -14 40 -17 15 -4 32 -15
37 -25 6 -11 10 -173 10 -403 0 -357 -1 -385 -18 -400 -10 -9 -28 -18 -41 -20
-12 -2 -27 -10 -32 -18 -12 -19 -11 -66 1 -89 9 -18 27 -19 294 -20 164 0 294
4 309 9 21 8 30 24 47 78 29 96 47 193 42 221 -5 26 -35 42 -65 34 -10 -2 -34
-30 -54 -61 -69 -110 -127 -150 -215 -151 -65 0 -75 13 -83 117 -9 123 3 680
15 704 6 10 23 22 38 25 15 4 33 11 40 17 15 12 16 79 0 95 -8 8 -63 12 -183
12 -120 0 -175 -4 -183 -12z m356 -10 c16 -16 15 -63 -1 -76 -6 -6 -25 -14
-40 -17 -15 -4 -32 -15 -37 -25 -5 -10 -12 -152 -16 -317 -5 -294 0 -478 16
-503 11 -18 97 -24 148 -11 55 15 101 57 151 135 43 69 60 81 87 62 23 -18 21
-64 -11 -184 -17 -64 -33 -103 -46 -115 -19 -15 -49 -17 -299 -17 -240 0 -281
2 -294 16 -32 32 -10 94 34 94 10 0 26 10 34 22 14 19 16 75 16 405 0 224 -4
392 -10 407 -5 15 -17 26 -28 26 -31 0 -62 29 -62 59 0 48 12 51 185 51 112 0
165 -4 173 -12z"/>
<g>
<path d="M3896 1555 c14 -32 17 -884 3 -901 -12 -15 -4 -33 9 -20 4 4 7 212 7
461 0 376 -2 456 -14 467 -12 11 -13 10 -5 -7z"/>
</g>
</g>
<g>
<path d="M5249 1618 c-14 -26 -7 -79 11 -88 8 -4 27 -13 42 -20 15 -7 31 -23
34 -34 4 -12 7 -176 7 -366 0 -381 -4 -404 -61 -434 -32 -17 -42 -34 -42 -72
0 -59 8 -62 150 -62 130 0 131 0 141 25 17 46 11 73 -27 106 -65 57 -68 69
-74 307 -5 208 -1 281 13 235 4 -11 13 -51 21 -90 19 -90 142 -528 155 -553 6
-11 22 -22 36 -24 36 -7 41 6 118 292 90 336 97 364 96 396 0 16 -9 -9 -19
-56 -24 -117 -151 -581 -164 -603 -13 -20 -39 -22 -55 -3 -14 17 -136 449
-162 575 -11 52 -21 96 -23 98 -1 2 -9 -5 -18 -14 -12 -15 -13 -53 -8 -243 7
-251 12 -273 74 -327 36 -32 45 -63 26 -93 -10 -17 -163 -27 -225 -16 -58 11
-61 80 -5 113 59 34 63 60 63 455 0 392 2 376 -62 406 -26 12 -37 24 -39 43
-6 49 18 59 133 59 98 0 105 -2 119 -22 13 -21 168 -560 183 -638 5 -28 8 -30
13 -15 4 11 3 27 -2 35 -4 8 -47 152 -94 320 -47 168 -90 311 -96 318 -8 9
-43 12 -130 11 -106 -1 -120 -3 -129 -21z"/>
</g>
<g>
<path d="M5899 1618 c-6 -10 -23 -65 -39 -121 -98 -353 -150 -551 -147 -561 2
-6 12 21 21 61 51 209 164 596 179 613 15 17 30 20 117 20 90 0 100 -2 110
-21 19 -34 8 -63 -30 -81 -19 -10 -38 -26 -42 -35 -3 -10 -7 -191 -7 -403 -1
-418 -1 -420 54 -434 44 -11 46 -88 2 -100 -29 -8 -255 -7 -285 0 -48 13 -40
87 13 104 18 6 36 19 40 28 11 25 18 583 8 609 -4 13 -8 -100 -8 -270 0 -161
-4 -304 -8 -319 -5 -19 -19 -33 -41 -42 -38 -16 -51 -42 -41 -85 8 -36 29 -41
180 -41 155 0 173 4 181 45 7 40 -2 75 -20 75 -7 0 -25 9 -40 21 l-26 20 0
387 c0 215 4 393 9 401 5 8 24 22 43 30 26 13 34 23 36 48 2 18 -2 41 -8 53
-10 20 -19 21 -126 19 -102 -1 -116 -3 -125 -21z"/>
</g>
<g>
<path d="M2806 1555 c5 -11 10 -214 12 -452 2 -376 0 -433 -13 -446 -9 -9 -11
-18 -6 -22 28 -17 32 44 29 474 -2 361 -6 442 -17 453 -12 11 -13 10 -5 -7z"/>
</g>
<g>
<path d="M1950 1552 c0 -4 5 -13 12 -20 19 -19 18 -838 0 -870 -8 -13 -11 -26
-9 -29 3 -2 11 6 19 19 10 18 13 110 13 438 -1 228 -4 427 -8 443 -7 24 -27
39 -27 19z"/>
</g>
<g>
<path d="M5425 1518 c17 -33 209 -686 238 -813 4 -19 5 -19 6 -1 1 25 -216
791 -235 828 -8 15 -19 28 -24 28 -5 0 2 -19 15 -42z"/>
</g>
<g>
<path d="M5970 1558 c0 -2 -2 -201 -3 -443 -2 -330 -6 -446 -15 -462 -7 -13
-9 -23 -3 -23 5 0 12 8 16 18 9 19 18 912 10 912 -3 0 -5 -1 -5 -2z"/>
</g>
<g>
<path d="M2108 1523 c-34 -9 -38 -58 -38 -442 0 -432 -2 -421 77 -421 74 0
124 20 174 70 56 56 84 125 99 247 25 198 -22 404 -113 491 -45 44 -141 71
-199 55z m108 -18 c54 -16 105 -62 143 -129 68 -119 77 -410 17 -541 -47 -104
-126 -164 -215 -165 -85 0 -81 -19 -81 412 0 376 3 409 34 430 17 12 47 9 102
-7z"/>
</g>
<g>
<path d="M2390 1506 c0 -4 11 -24 25 -45 60 -96 91 -262 82 -435 -8 -141 -28
-214 -77 -288 -21 -32 -34 -58 -29 -58 13 0 57 71 79 127 62 163 46 484 -32
640 -20 40 -48 75 -48 59z"/>
</g>
</g>
</svg>
