<?xml version="1.0" standalone="no"?>
<!DOCTYPE svg PUBLIC "-//W3C//DTD SVG 20010904//EN"
 "http://www.w3.org/TR/2001/REC-SVG-20010904/DTD/svg10.dtd">
<svg version="1.0" xmlns="http://www.w3.org/2000/svg"
 width="1000.000000pt" height="1080.000000pt" viewBox="0 0 1000.000000 1080.000000"
 preserveAspectRatio="xMidYMid meet">
<metadata>
Created by potrace 1.16, written by Peter Selinger 2001-2019
</metadata>
<g transform="translate(0.000000,1080.000000) scale(0.100000,-0.100000)"
fill="#000000" stroke="none">
<g>
<path d="M3669 8972 c-8 -4 -35 -23 -60 -43 -24 -20 -111 -78 -194 -129 -82
-52 -177 -112 -210 -134 -33 -22 -123 -72 -200 -111 -77 -39 -234 -133 -349
-209 -114 -76 -256 -164 -315 -195 -58 -32 -144 -82 -191 -113 -151 -99 -293
-182 -415 -242 -66 -32 -145 -70 -175 -85 -105 -52 -405 -218 -465 -258 -33
-22 -96 -58 -140 -81 -124 -62 -127 -68 -110 -217 9 -86 22 -109 78 -133 24
-11 98 -51 164 -91 97 -57 122 -76 127 -99 11 -45 20 -582 10 -582 -17 0 -108
67 -199 146 -138 120 -167 137 -236 142 -70 5 -186 -28 -217 -61 -31 -33 -42
-91 -42 -215 0 -141 11 -170 77 -208 79 -46 268 -174 515 -349 344 -244 412
-293 520 -372 54 -40 340 -234 635 -432 296 -197 635 -430 753 -518 211 -156
421 -312 870 -643 124 -91 272 -198 330 -238 58 -39 173 -124 255 -187 267
-208 338 -260 485 -362 351 -243 536 -317 821 -330 109 -5 151 -2 215 12 320
71 543 275 653 601 58 170 73 348 46 524 -29 187 -123 466 -201 596 -79 131
-199 266 -340 380 l-96 78 28 23 c16 13 108 77 204 143 96 65 234 163 307 217
142 106 498 337 511 331 4 -2 88 -57 187 -124 297 -199 441 -277 707 -383 163
-65 203 -78 284 -92 128 -22 444 11 599 62 182 62 331 190 447 385 178 301
170 615 -25 974 -38 70 -73 116 -132 176 -131 132 -252 203 -465 272 -201 65
-366 76 -553 36 -101 -21 -291 -99 -370 -151 -120 -80 -213 -224 -226 -349 -8
-76 8 -58 -180 -191 -155 -110 -157 -111 -186 -93 -146 90 -232 147 -256 169
l-28 26 -3 241 c-2 202 -1 244 12 259 23 28 351 240 392 254 23 8 38 20 41 34
3 12 6 86 6 164 0 170 0 170 -114 206 -44 13 -102 34 -130 46 -27 11 -95 37
-150 57 -55 20 -134 52 -175 71 -41 19 -102 45 -135 58 -33 12 -150 63 -260
113 -195 88 -625 262 -735 297 -30 10 -100 41 -155 71 -55 29 -159 73 -231 97
-72 25 -162 60 -200 79 -115 56 -343 178 -441 235 -51 30 -135 74 -185 97
-135 64 -615 301 -668 331 -43 24 -89 31 -121 17z m130 -36 c52 -31 346 -177
636 -316 66 -31 145 -72 175 -90 61 -37 365 -199 450 -241 30 -15 116 -48 190
-74 74 -25 177 -68 227 -95 51 -27 138 -65 194 -85 141 -49 469 -179 564 -224
170 -80 477 -211 670 -287 77 -30 163 -64 190 -75 28 -12 91 -34 140 -50 50
-17 98 -39 107 -50 14 -16 17 -43 16 -163 0 -78 -3 -148 -7 -154 -3 -6 -27
-19 -51 -30 -51 -22 -294 -177 -356 -227 l-40 -33 4 -249 c2 -136 9 -256 14
-266 5 -10 48 -43 96 -74 48 -30 110 -71 138 -89 28 -19 60 -34 73 -34 34 0
330 205 343 238 3 9 7 38 7 63 2 98 113 266 228 342 197 130 447 193 675 168
310 -33 636 -212 779 -424 59 -90 134 -248 164 -352 39 -131 45 -297 16 -420
-47 -194 -186 -411 -342 -531 -121 -93 -232 -132 -480 -168 -269 -40 -393 -15
-753 150 -192 89 -325 165 -560 324 -99 66 -186 120 -194 120 -22 0 -366 -223
-515 -333 -73 -54 -193 -139 -267 -189 -193 -130 -270 -188 -270 -203 0 -7 40
-45 89 -84 267 -213 427 -466 515 -816 48 -193 56 -321 31 -485 -19 -126 -37
-186 -95 -305 -96 -199 -211 -316 -409 -415 -128 -64 -228 -83 -396 -77 -223
9 -378 57 -593 185 -131 78 -379 252 -547 383 -203 159 -353 271 -440 329 -44
30 -181 129 -305 220 -124 91 -322 238 -440 325 -118 87 -312 230 -430 318
-118 88 -451 317 -740 510 -289 192 -617 417 -730 498 -498 360 -836 595 -952
662 -73 42 -81 65 -76 223 3 115 6 136 24 161 32 44 105 75 188 81 69 4 73 3
126 -34 30 -20 93 -71 140 -112 101 -89 178 -142 204 -142 18 0 19 9 12 283
-3 155 -9 297 -12 314 -6 29 -19 41 -125 103 -66 39 -139 79 -162 89 -60 26
-73 47 -81 121 -3 36 -9 76 -12 90 -8 39 28 76 120 122 44 22 108 59 141 81
102 68 403 230 639 344 121 58 260 139 416 241 47 31 133 81 191 113 59 31
201 119 315 195 115 76 272 170 349 209 77 39 167 89 200 111 33 22 128 82
210 134 83 51 174 112 204 136 66 54 94 56 170 10z"/>
<g>
<path d="M3635 8837 c-39 -23 -115 -72 -170 -108 -55 -37 -126 -81 -158 -99
-31 -17 -57 -38 -57 -46 0 -23 172 -116 603 -328 227 -111 480 -241 564 -289
84 -48 264 -142 400 -211 137 -68 320 -164 408 -214 204 -114 303 -164 539
-269 289 -129 417 -193 580 -292 81 -49 167 -94 192 -101 43 -12 46 -12 141
34 54 26 138 77 187 114 49 37 152 108 230 157 95 61 142 97 144 110 3 23 13
18 -213 105 -231 88 -577 232 -707 293 -129 62 -249 111 -468 194 -80 30 -221
90 -315 133 -93 43 -230 99 -302 125 -153 53 -216 83 -438 205 -144 79 -359
187 -896 449 -92 44 -173 81 -180 80 -8 0 -46 -19 -84 -42z m250 -46 c88 -43
291 -143 450 -221 160 -78 368 -185 464 -237 206 -113 258 -137 414 -192 121
-42 133 -47 302 -126 55 -26 208 -89 340 -140 132 -51 305 -123 385 -160 145
-67 556 -238 725 -302 156 -59 265 -105 265 -114 0 -9 -80 -65 -185 -129 -38
-23 -117 -77 -175 -120 -133 -98 -280 -174 -321 -165 -16 4 -99 49 -186 101
-173 104 -300 168 -589 297 -236 105 -335 155 -539 269 -88 50 -271 146 -408
214 -136 69 -316 163 -400 211 -84 48 -337 178 -564 289 -355 174 -603 305
-603 318 0 2 26 19 58 37 50 28 109 65 339 215 26 18 52 32 58 33 5 1 82 -34
170 -78z"/>
</g>
<g>
<path d="M3020 8467 c-131 -65 -490 -301 -490 -321 0 -9 19 -25 43 -37 23 -12
89 -54 147 -93 123 -82 398 -228 695 -368 255 -120 356 -176 668 -370 143 -89
314 -186 417 -236 96 -47 214 -109 262 -138 47 -29 171 -101 275 -160 103 -59
251 -146 328 -194 143 -89 412 -240 428 -240 5 0 61 40 126 89 65 48 219 155
342 236 254 167 234 153 227 160 -7 7 -475 -306 -594 -397 l-101 -78 -139 76
c-76 42 -202 116 -279 164 -77 48 -225 135 -328 194 -104 59 -228 131 -275
160 -48 29 -166 91 -262 138 -103 50 -274 147 -417 236 -312 194 -413 250
-668 370 -297 140 -572 286 -695 368 -58 39 -124 81 -147 93 -24 12 -43 24
-43 27 0 2 87 62 193 132 181 120 386 232 423 232 9 0 42 -16 74 -35 32 -19
278 -145 547 -280 268 -134 538 -272 598 -306 61 -34 256 -136 435 -225 322
-162 441 -225 595 -320 79 -49 130 -72 464 -219 96 -42 256 -123 355 -179 212
-121 241 -136 258 -136 7 1 -5 10 -27 22 -22 11 -121 67 -220 123 -99 57 -220
121 -270 142 -49 22 -169 75 -266 117 -171 75 -247 114 -394 206 -38 24 -236
128 -440 231 -203 102 -419 214 -480 248 -60 34 -330 172 -598 306 -269 135
-515 261 -547 280 -32 19 -70 35 -86 35 -16 -1 -76 -24 -134 -53z"/>
</g>
<g>
<path d="M2395 8080 c-11 -4 -103 -61 -205 -125 -102 -64 -239 -143 -306 -176
-71 -35 -121 -65 -121 -73 0 -9 27 -26 61 -41 91 -39 252 -130 457 -258 254
-158 421 -253 724 -410 292 -151 595 -325 885 -507 107 -67 258 -158 334 -202
165 -94 240 -144 436 -288 177 -130 294 -200 335 -200 16 0 44 9 60 20 17 12
71 45 120 75 50 29 145 93 212 142 67 49 168 113 223 143 61 33 100 61 100 70
0 9 -22 27 -52 42 -58 28 -370 213 -601 357 -188 117 -358 211 -622 344 -232
117 -348 185 -571 333 -113 76 -203 124 -374 204 -347 161 -591 287 -751 387
-156 98 -292 173 -312 172 -7 0 -21 -4 -32 -9z m114 -41 c42 -23 128 -74 191
-114 163 -102 343 -199 580 -311 113 -53 259 -122 325 -153 66 -32 188 -102
270 -158 206 -137 343 -217 566 -329 240 -120 418 -218 606 -335 231 -144 543
-329 601 -357 28 -15 52 -29 52 -32 0 -3 -45 -30 -100 -60 -55 -30 -156 -94
-223 -143 -67 -49 -162 -113 -212 -142 -49 -30 -103 -63 -120 -75 -16 -11 -39
-20 -50 -20 -31 0 -165 82 -325 200 -196 144 -271 194 -438 289 -78 45 -237
141 -354 215 -297 185 -576 345 -871 498 -293 151 -462 247 -712 403 -215 134
-337 204 -439 250 -42 19 -76 39 -76 44 0 5 15 15 33 23 86 35 249 126 417
231 101 65 189 117 194 117 5 0 43 -19 85 -41z"/>
</g>
<g>
<path d="M1616 7645 c-20 -7 -54 -24 -75 -38 -21 -14 -89 -51 -151 -82 -63
-31 -159 -87 -214 -125 -56 -37 -120 -77 -143 -89 -24 -12 -43 -27 -43 -35 0
-14 294 -196 480 -296 63 -35 189 -111 280 -170 91 -59 201 -127 245 -150 75
-41 469 -263 690 -390 55 -31 195 -114 310 -184 116 -70 287 -165 380 -211
125 -62 201 -107 288 -173 146 -110 460 -286 627 -352 62 -25 78 -19 161 56
96 85 162 133 294 213 66 41 130 82 143 92 22 17 22 18 5 34 -10 9 -68 49
-128 88 -61 40 -142 98 -180 129 -77 61 -260 180 -430 278 -60 35 -193 118
-295 186 -102 67 -248 156 -325 197 -77 41 -183 100 -235 132 -52 32 -192 109
-311 171 -338 177 -512 274 -674 379 -151 97 -312 195 -321 195 -3 0 -69 32
-147 71 -173 87 -183 90 -231 74z m134 -40 c30 -17 98 -51 150 -75 114 -54
205 -107 405 -235 161 -104 334 -201 675 -379 118 -62 271 -147 340 -188 69
-41 172 -99 230 -129 57 -30 193 -112 302 -184 108 -71 259 -166 334 -210 163
-95 336 -210 454 -301 47 -37 122 -89 168 -117 99 -61 103 -51 -73 -158 -133
-80 -207 -134 -293 -213 -95 -88 -83 -87 -240 -11 -225 109 -400 210 -527 305
-89 67 -164 112 -290 175 -93 46 -264 141 -380 211 -115 70 -255 153 -310 184
-221 127 -615 349 -690 390 -44 23 -154 91 -245 150 -91 59 -221 138 -290 175
-114 62 -443 258 -464 276 -4 4 11 17 35 30 24 12 89 52 145 90 55 37 154 95
220 129 65 33 147 76 181 95 70 38 79 37 163 -10z"/>
</g>
<g>
<path d="M7218 7185 c-15 -13 -69 -49 -120 -81 -51 -31 -138 -91 -193 -133
-55 -42 -140 -97 -190 -122 l-90 -46 -1 -74 -1 -74 6 69 6 69 90 46 c50 25
135 80 190 122 55 42 142 102 193 133 98 61 150 101 142 109 -3 3 -17 -5 -32
-18z"/>
</g>
<g>
<path d="M930 7176 c0 -51 18 -75 81 -106 34 -18 112 -62 173 -99 61 -38 136
-81 166 -96 30 -15 96 -58 146 -95 51 -38 137 -91 192 -119 116 -58 247 -134
347 -201 39 -26 142 -88 231 -137 88 -50 196 -113 240 -140 43 -28 138 -83
209 -123 72 -41 186 -110 255 -153 69 -44 177 -107 240 -139 63 -33 142 -79
175 -102 33 -24 141 -92 240 -151 99 -59 196 -120 215 -135 19 -15 76 -51 125
-81 50 -29 136 -83 192 -119 56 -37 106 -64 111 -61 12 8 24 103 16 125 -3 8
-90 59 -192 112 -279 144 -355 190 -461 274 -142 112 -174 132 -343 213 -85
41 -244 128 -354 194 -109 66 -242 144 -294 173 -52 29 -144 83 -205 120 -60
37 -186 109 -280 160 -93 52 -215 121 -270 155 -55 34 -167 104 -250 155 -82
50 -244 146 -360 212 -115 66 -234 135 -262 154 -63 41 -83 43 -83 10z m73
-20 c28 -19 147 -88 262 -154 116 -66 278 -162 360 -212 83 -51 195 -121 250
-155 55 -34 177 -103 270 -155 94 -51 220 -123 280 -160 61 -37 153 -91 205
-120 52 -29 185 -107 294 -173 110 -66 269 -153 354 -194 169 -81 201 -101
344 -214 103 -82 190 -134 463 -274 94 -48 176 -92 183 -98 10 -8 12 -25 7
-61 -4 -28 -9 -52 -10 -54 -2 -2 -59 32 -126 76 -68 44 -151 94 -184 113 -33
18 -78 47 -100 65 -22 17 -121 80 -220 139 -99 60 -207 127 -240 151 -33 23
-112 69 -175 102 -63 32 -164 90 -225 129 -60 39 -185 113 -277 166 -91 53
-190 112 -220 131 -30 19 -128 76 -219 127 -90 50 -195 113 -234 139 -100 67
-231 143 -346 201 -55 27 -143 82 -197 122 -54 40 -113 79 -132 87 -19 8 -92
49 -161 91 -69 42 -153 91 -187 108 -34 17 -66 40 -72 50 -10 20 -14 61 -5 61
3 0 29 -15 58 -34z"/>
</g>
<g>
<path d="M7262 7143 l-2 -63 -67 -42 c-59 -37 -364 -240 -506 -337 -27 -18
-46 -35 -43 -38 3 -3 26 10 53 28 26 18 158 106 293 196 135 89 253 168 263
175 15 11 18 24 15 78 l-4 65 -2 -62z"/>
</g>
<g>
<path d="M1309 6793 c-3 -10 -1 -193 3 -408 7 -416 5 -437 -40 -443 -30 -4
-71 21 -232 146 -134 104 -384 275 -407 278 -7 1 -15 -14 -19 -33 -8 -45 4
-184 18 -200 6 -8 77 -57 157 -110 80 -52 207 -139 281 -192 74 -54 207 -144
295 -202 88 -58 268 -183 400 -279 132 -96 393 -275 580 -399 421 -277 499
-332 855 -596 157 -116 418 -305 580 -420 366 -258 505 -361 739 -549 179
-144 579 -418 766 -525 250 -143 513 -192 732 -135 110 28 180 69 263 152 126
127 200 278 236 482 20 117 14 229 -20 356 -30 110 -143 393 -198 494 -126
232 -286 402 -491 522 -170 99 -293 135 -487 145 -110 5 -135 3 -207 -17 -151
-41 -260 -126 -305 -238 -18 -46 -22 -77 -23 -157 0 -90 3 -106 28 -157 37
-76 101 -131 175 -152 117 -32 200 -16 352 69 142 80 249 105 360 85 78 -14
114 -29 202 -87 155 -101 312 -329 363 -528 25 -96 26 -269 1 -350 -56 -187
-215 -338 -394 -376 -72 -15 -215 -6 -302 19 -230 66 -581 269 -1090 630 -294
208 -341 245 -389 302 -24 28 -79 76 -122 106 -44 31 -86 69 -94 85 -10 18
-15 59 -15 121 0 51 -7 194 -15 318 -8 124 -15 336 -15 472 0 136 -4 257 -9
270 -12 31 -95 90 -115 82 -19 -7 -19 0 0 -154 19 -158 30 -936 13 -957 -19
-22 -55 -15 -101 20 -101 76 -265 192 -327 229 -36 22 -111 73 -167 114 -56
40 -179 123 -275 185 -200 128 -407 272 -629 439 -222 167 -522 378 -656 461
-66 41 -120 81 -126 95 -8 16 -8 74 1 201 6 98 11 301 11 451 l0 272 -62 40
c-69 45 -74 47 -79 23z m131 -341 c0 -147 -5 -348 -11 -447 -8 -125 -8 -188
-1 -206 7 -19 47 -49 126 -98 134 -83 434 -294 656 -461 222 -167 429 -311
629 -439 96 -62 219 -145 275 -185 56 -41 131 -92 167 -114 62 -37 226 -153
327 -229 46 -35 100 -44 121 -20 17 21 7 798 -13 965 -9 73 -14 138 -10 143 6
11 92 -48 105 -73 5 -9 9 -128 9 -265 0 -136 7 -349 15 -473 8 -124 15 -267
15 -318 0 -126 10 -146 108 -215 44 -31 99 -79 123 -107 23 -28 75 -75 113
-104 138 -103 483 -345 611 -428 351 -229 510 -314 705 -381 247 -85 455 -54
612 91 77 72 112 126 145 227 33 102 37 270 8 380 -56 214 -202 432 -363 539
-185 123 -373 121 -595 -6 -101 -58 -160 -78 -227 -78 -112 0 -208 58 -265
161 -28 50 -30 62 -30 154 0 93 2 105 33 167 37 76 91 129 179 176 98 52 170
65 313 59 194 -9 299 -42 481 -147 276 -161 464 -410 625 -826 108 -280 119
-469 39 -697 -63 -181 -206 -355 -347 -422 -169 -80 -391 -82 -612 -6 -178 62
-654 367 -981 630 -231 185 -371 290 -735 546 -162 115 -423 304 -580 420
-355 263 -433 317 -855 596 -187 124 -448 303 -580 399 -132 96 -312 221 -400
279 -88 58 -221 148 -295 202 -74 53 -201 140 -281 192 -80 53 -152 103 -158
111 -17 20 -27 191 -13 200 15 9 235 -137 402 -266 188 -147 246 -174 281
-131 15 18 16 43 11 533 -2 162 -3 301 -2 308 0 7 25 -4 60 -28 l60 -41 0
-267z"/>
</g>
<g>
<path d="M8675 6730 c3 -5 0 -10 -7 -10 -7 0 34 -25 92 -56 234 -123 394 -288
507 -522 72 -150 95 -404 52 -568 -31 -118 -33 -139 -3 -49 35 107 44 297 20
427 -57 306 -275 580 -578 729 -81 40 -91 59 -14 25 292 -129 500 -342 585
-599 67 -201 67 -451 0 -602 -11 -25 -19 -51 -17 -57 6 -17 46 96 63 177 41
196 -7 480 -112 660 -107 183 -295 341 -512 429 -70 28 -86 32 -76 16z"/>
</g>
<g>
<path d="M6480 6698 c-19 -16 -138 -98 -265 -182 -235 -156 -378 -263 -389
-292 -10 -25 -7 -72 5 -80 6 -3 23 5 37 19 15 14 70 51 122 82 52 32 163 103
245 159 83 57 183 122 222 145 78 46 90 66 80 142 -3 26 -4 23 -5 -17 -2 -61
-10 -71 -92 -119 -36 -22 -132 -85 -215 -141 -82 -56 -193 -127 -245 -159 -52
-31 -107 -69 -122 -83 l-28 -26 0 36 c0 33 7 42 68 93 37 31 177 130 312 220
244 163 320 219 310 228 -3 3 -21 -8 -40 -25z"/>
</g>
<g>
<path d="M8059 6681 c-48 -10 -116 -33 -152 -50 -114 -55 -230 -180 -244 -265
-8 -50 8 -47 77 14 71 61 114 86 163 94 56 10 104 -3 142 -38 40 -38 50 -70
40 -133 -6 -42 -15 -56 -75 -113 -37 -36 -86 -76 -108 -90 -23 -14 -42 -30
-42 -37 0 -32 185 -28 260 6 25 11 79 52 120 91 122 114 227 155 341 131 145
-30 330 -202 391 -364 31 -81 35 -197 9 -296 -67 -268 -274 -423 -566 -423
-49 0 -112 5 -140 12 -91 21 -516 223 -672 319 -216 133 -247 151 -264 151
-23 0 -149 -80 -149 -95 0 -29 436 -306 615 -391 149 -70 255 -115 360 -152
92 -32 112 -36 242 -40 292 -9 537 64 679 203 71 69 112 144 150 272 21 71 27
115 31 233 4 132 2 154 -21 244 -14 55 -39 128 -56 164 -114 244 -335 437
-605 528 -107 37 -115 38 -275 41 -133 2 -182 -1 -251 -16z m500 -25 c340
-111 608 -391 682 -713 19 -81 21 -113 16 -231 -14 -343 -155 -546 -444 -640
-184 -60 -476 -69 -623 -19 -80 27 -304 124 -408 176 -151 76 -591 355 -579
367 2 2 32 22 67 45 l64 41 34 -16 c19 -9 84 -48 144 -87 170 -110 560 -305
705 -353 155 -51 347 -34 522 46 64 30 159 130 199 208 97 195 92 406 -14 565
-82 124 -207 221 -324 251 -126 32 -228 0 -355 -114 -121 -108 -150 -123 -244
-129 -44 -3 -91 -3 -106 1 l-27 7 47 31 c87 57 162 138 175 188 32 122 -28
204 -150 204 -79 0 -118 -17 -196 -83 -80 -69 -94 -60 -42 26 42 71 127 149
207 192 101 53 206 71 401 67 148 -3 174 -6 249 -30z"/>
</g>
<g>
<path d="M6715 6621 c-44 -27 -140 -84 -213 -126 -73 -43 -179 -111 -235 -152
-56 -42 -120 -84 -142 -94 -29 -14 -34 -19 -18 -19 21 0 85 40 218 137 39 28
131 86 205 128 74 43 167 97 205 121 39 24 73 39 78 35 4 -4 6 -103 5 -221
l-3 -213 -125 -74 -125 -74 -64 5 c-50 3 -80 12 -135 42 -151 81 -185 96 -227
99 l-44 4 44 -9 c25 -5 89 -34 143 -64 195 -110 248 -111 423 -9 l120 70 0
229 c0 196 -2 229 -15 231 -8 1 -51 -20 -95 -46z"/>
</g>
<g>
<path d="M1530 6473 c0 -104 -3 -279 -7 -390 l-6 -202 24 6 c40 10 126 72 170
121 54 62 72 98 103 214 14 54 39 125 56 158 21 42 28 65 22 77 -5 8 -66 48
-135 87 -69 39 -140 80 -158 91 -49 28 -56 30 -40 11 8 -10 38 -29 65 -43 55
-27 233 -130 253 -145 8 -7 3 -26 -18 -74 -16 -36 -40 -104 -53 -152 -28 -106
-51 -152 -105 -214 -40 -45 -139 -118 -160 -118 -8 0 -9 112 -4 380 3 209 3
380 0 380 -4 0 -7 -84 -7 -187z"/>
</g>
<g>
<path d="M707 6426 c-4 -10 10 -24 40 -42 51 -30 197 -132 352 -248 117 -87
141 -94 141 -41 0 37 -4 42 -107 103 -34 20 -105 75 -158 122 -52 47 -110 93
-127 103 -41 21 -133 23 -141 3z m130 -9 c12 -7 67 -52 123 -102 55 -49 129
-107 163 -127 96 -57 107 -67 107 -93 0 -14 -4 -25 -9 -25 -5 0 -47 28 -93 62
-163 121 -325 236 -366 259 -23 13 -42 27 -42 32 0 12 93 7 117 -6z"/>
</g>
<g>
<path d="M1978 6403 c-20 -5 -37 -46 -77 -193 -36 -128 -75 -202 -138 -261
-24 -22 -43 -45 -43 -52 0 -7 12 -20 28 -29 43 -26 282 -197 332 -238 25 -20
149 -110 275 -200 127 -90 277 -197 335 -239 57 -42 145 -103 195 -136 49 -34
156 -108 236 -165 367 -263 484 -340 515 -340 16 0 17 18 11 218 -6 189 -21
406 -43 619 l-6 63 -82 46 c-44 26 -115 70 -156 98 -41 29 -123 77 -181 108
-58 31 -168 96 -245 146 -76 49 -179 112 -229 139 -49 28 -139 79 -200 115
-60 35 -193 113 -295 172 -102 60 -192 114 -200 121 -8 6 -22 10 -32 8z m168
-106 c87 -51 227 -133 309 -182 83 -48 191 -110 240 -138 50 -27 153 -90 229
-139 77 -50 187 -115 245 -146 58 -31 140 -79 181 -108 41 -28 112 -72 157
-98 l81 -47 6 -57 c32 -290 58 -823 40 -821 -5 0 -46 24 -91 52 -82 52 -139
91 -412 287 -80 57 -187 131 -236 165 -50 33 -138 94 -195 136 -58 41 -199
142 -315 224 -115 82 -239 172 -275 200 -68 54 -239 177 -325 235 -27 18 -52
34 -53 36 -2 1 14 19 36 39 65 58 98 120 136 255 37 129 64 200 76 200 4 0 79
-42 166 -93z"/>
</g>
<g>
<path d="M7865 6382 c-22 -11 -99 -66 -171 -124 -142 -113 -203 -156 -689
-488 -526 -360 -556 -381 -655 -454 -52 -38 -144 -101 -205 -139 -183 -115
-344 -231 -342 -245 2 -15 107 -62 154 -69 27 -4 41 2 80 34 97 80 491 352
1133 780 445 297 675 462 777 557 52 48 58 57 58 94 0 23 -5 46 -12 53 -20 20
-86 21 -128 1z m115 -12 c33 -33 25 -59 -37 -120 -97 -94 -326 -258 -838 -600
-530 -354 -917 -620 -1033 -709 -41 -31 -80 -60 -87 -66 -14 -10 -45 -1 -134
37 l-43 18 108 77 c60 43 163 112 230 154 67 42 163 108 215 146 52 38 148
106 214 151 66 46 179 124 250 174 72 50 238 164 370 253 303 203 363 246 507
362 180 144 233 168 278 123z"/>
</g>
<g>
<path d="M8445 6208 c-45 -17 -83 -44 -162 -120 -98 -94 -158 -120 -288 -126
-70 -3 -117 0 -159 11 -39 11 -66 13 -82 7 -45 -18 -214 -145 -214 -162 0 -22
19 -35 244 -168 233 -138 322 -183 457 -231 240 -85 408 -89 521 -12 85 58
149 207 151 348 1 144 -42 244 -153 349 -95 91 -231 136 -315 104z m204 -38
c75 -40 178 -147 214 -221 68 -140 53 -314 -40 -455 -78 -119 -197 -156 -393
-118 -173 32 -324 100 -636 284 -210 124 -246 148 -242 160 3 9 171 130 204
148 16 8 35 7 80 -5 42 -11 87 -14 159 -10 142 7 195 30 305 132 48 45 107 92
131 104 61 31 136 24 218 -19z"/>
</g>
<g>
<path d="M5604 6086 c-56 -35 -160 -104 -230 -153 -71 -50 -168 -113 -216
-142 -101 -60 -118 -80 -118 -137 0 -41 21 -66 36 -43 3 6 57 43 119 84 62 40
170 117 241 170 70 53 163 117 206 143 60 36 80 54 88 78 11 34 5 64 -14 63
-6 0 -57 -29 -112 -63z m117 6 c-8 -19 -34 -42 -79 -68 -37 -21 -130 -86 -207
-143 -116 -87 -349 -247 -377 -259 -5 -2 -8 14 -8 35 0 49 14 62 140 138 52
32 145 93 207 136 157 112 316 208 327 198 5 -4 4 -20 -3 -37z"/>
</g>
<g>
<path d="M6853 6134 c-7 -18 -13 -13 112 -101 120 -84 142 -96 161 -89 36 14
10 44 -111 124 -69 45 -132 82 -140 82 -9 0 -18 -7 -22 -16z m150 -75 c67 -45
124 -84 126 -86 3 -2 0 -8 -6 -14 -8 -8 -46 13 -137 77 -105 74 -137 104 -110
104 2 0 60 -37 127 -81z"/>
</g>
<g>
<path d="M5949 6121 c-26 -10 -66 -32 -90 -50 -24 -17 -100 -70 -169 -116 -69
-46 -208 -143 -310 -215 -102 -72 -210 -148 -240 -167 -344 -226 -374 -250
-434 -335 -37 -55 -129 -290 -167 -428 -36 -131 -80 -260 -107 -308 -32 -59
-182 -209 -245 -246 -26 -16 -47 -35 -47 -44 0 -10 22 -31 48 -48 27 -18 106
-78 176 -134 140 -111 611 -468 716 -542 85 -59 418 -254 495 -289 176 -79
338 -104 437 -66 93 36 175 172 196 325 13 88 3 161 -33 262 -133 367 -402
569 -655 494 -30 -9 -102 -40 -161 -69 -141 -71 -203 -89 -295 -83 -181 12
-338 162 -364 348 -34 241 149 482 405 534 152 31 441 45 520 25 71 -18 104
-6 206 77 52 41 195 143 319 227 124 83 313 212 420 287 107 74 207 143 223
153 15 10 27 23 27 30 0 7 -32 32 -70 56 -39 24 -108 71 -153 105 -45 35 -98
66 -117 69 -41 9 -126 48 -202 93 -119 72 -236 92 -329 55z m252 -30 c188 -98
236 -120 268 -126 20 -4 55 -23 79 -42 24 -20 93 -68 153 -109 l111 -73 -29
-18 c-15 -10 -116 -79 -223 -153 -107 -75 -296 -204 -420 -287 -124 -84 -267
-186 -319 -228 -52 -41 -105 -78 -118 -81 -13 -4 -51 -1 -84 6 -42 9 -102 11
-198 6 -329 -15 -462 -52 -577 -158 -111 -102 -175 -274 -154 -415 15 -107 47
-172 119 -244 78 -77 147 -109 257 -116 92 -7 152 10 329 95 l140 67 91 0 c86
0 94 -2 176 -42 65 -33 100 -58 146 -108 132 -140 230 -326 252 -477 25 -167
-68 -386 -188 -444 -86 -42 -277 -12 -437 68 -94 48 -413 236 -485 286 -105
74 -576 431 -716 542 -70 56 -149 116 -176 134 -26 17 -48 34 -48 38 0 3 21
19 47 34 69 40 216 190 245 249 27 53 73 190 108 317 29 105 113 329 143 380
59 100 150 177 397 332 58 37 191 127 295 202 105 74 242 169 305 211 63 42
135 92 160 111 82 63 136 83 216 80 56 -3 83 -10 135 -37z"/>
</g>
<g>
<path d="M6685 6040 c-37 -24 -60 -46 -60 -57 0 -22 236 -183 269 -183 24 0
130 69 133 87 3 13 -250 193 -270 192 -6 0 -39 -18 -72 -39z m198 -56 c67 -47
123 -90 125 -94 4 -10 -97 -80 -114 -80 -13 0 -250 155 -258 169 -5 7 102 86
122 90 1 1 57 -38 125 -85z"/>
</g>
<g>
<path d="M1627 5824 c-15 -8 -27 -21 -27 -28 0 -7 33 -35 73 -61 39 -27 113
-78 162 -115 50 -37 113 -82 140 -100 28 -19 94 -68 149 -109 141 -109 269
-203 361 -267 44 -30 121 -84 170 -120 50 -35 149 -101 220 -146 72 -44 168
-109 215 -143 47 -34 175 -121 285 -195 110 -73 208 -140 218 -148 32 -28 47
-23 47 13 0 37 -17 53 -123 116 -33 19 -75 48 -95 65 -21 17 -86 64 -147 104
-60 41 -177 122 -260 180 -82 59 -182 129 -222 156 -131 90 -357 254 -437 317
-44 34 -100 76 -125 93 -25 17 -93 65 -151 107 -122 90 -384 273 -408 286 -11
6 -27 4 -45 -5z m274 -169 c31 -22 106 -76 165 -119 60 -44 130 -93 155 -110
25 -17 81 -59 125 -93 80 -63 306 -227 437 -317 40 -27 140 -97 222 -156 83
-58 200 -139 260 -180 61 -40 126 -87 147 -104 20 -17 62 -46 95 -65 91 -54
123 -80 123 -102 0 -12 -3 -19 -7 -17 -18 7 -445 296 -523 353 -47 34 -143 99
-215 143 -71 45 -170 111 -220 146 -49 36 -126 90 -170 120 -92 64 -221 159
-361 267 -55 41 -127 94 -161 117 -34 23 -91 64 -125 90 -35 26 -103 74 -151
106 l-89 60 23 17 c22 16 25 15 118 -49 53 -37 121 -85 152 -107z"/>
</g>
<g>
<path d="M7427 5763 c-14 -13 -6 -39 16 -52 44 -28 347 -201 448 -256 166 -90
356 -166 408 -164 l26 2 -25 4 c-107 18 -256 86 -555 256 -333 188 -336 190
-300 203 9 4 33 -10 59 -32 43 -39 403 -249 544 -319 74 -36 239 -96 263 -94
8 0 -29 15 -81 33 -52 18 -129 49 -170 70 -147 74 -503 282 -545 319 -40 35
-73 46 -88 30z"/>
</g>
<g>
<path d="M4911 5637 c-6 -8 -48 -37 -93 -65 -140 -85 -232 -153 -342 -251
l-106 -93 0 -48 c0 -33 5 -50 15 -54 8 -3 15 -2 15 2 0 5 27 27 59 50 32 23
85 64 118 93 32 28 78 65 103 82 224 152 268 188 274 222 7 34 -6 75 -23 75
-5 0 -14 -6 -20 -13z m34 -57 c-6 -27 -83 -88 -270 -214 -16 -11 -63 -48 -103
-82 -40 -34 -99 -80 -132 -103 l-60 -42 0 39 c0 38 5 44 106 133 58 52 158
129 222 172 64 43 142 95 172 116 60 41 77 36 65 -19z"/>
</g>
<g>
<path d="M3907 4978 c2 -220 26 -680 39 -745 2 -13 11 -23 20 -23 38 0 302
195 369 272 36 43 68 128 124 333 16 61 48 160 70 220 28 76 37 111 29 116
-11 7 -87 -44 -157 -103 -57 -50 -74 -54 -123 -28 -43 22 -260 156 -310 191
-15 10 -35 19 -45 19 -17 0 -18 -16 -16 -252z m51 223 c15 -11 72 -47 127 -82
247 -154 233 -152 365 -51 52 40 97 72 101 72 4 0 -11 -48 -33 -107 -22 -60
-57 -172 -78 -249 -53 -189 -74 -243 -115 -291 -69 -81 -343 -282 -365 -268
-6 3 -10 27 -10 53 0 25 -7 127 -15 226 -16 196 -25 716 -12 716 4 0 20 -9 35
-19z"/>
</g>
<g>
<path d="M5695 4882 c250 -89 474 -253 630 -461 125 -165 232 -408 271 -608
18 -94 25 -331 12 -438 -7 -56 -7 -58 4 -20 19 64 15 353 -5 458 -38 188 -127
404 -233 564 -104 156 -278 318 -439 408 -78 44 -237 110 -285 119 -19 3 1 -7
45 -22z"/>
</g>
<g>
<path d="M5626 4881 c5 -5 27 -14 49 -21 158 -50 316 -152 444 -286 115 -120
192 -237 296 -449 145 -295 181 -428 172 -640 -3 -71 -8 -139 -12 -150 -7 -17
-6 -18 6 -7 11 10 14 51 14 185 0 194 -8 234 -90 445 -101 257 -232 476 -376
626 -128 134 -232 203 -410 272 -91 35 -110 40 -93 25z"/>
</g>
<g>
<path d="M4010 4142 c-36 -24 -32 -38 19 -72 25 -16 81 -67 125 -113 45 -46
125 -114 181 -152 55 -38 151 -106 213 -151 62 -46 137 -98 168 -116 31 -18
119 -75 197 -126 181 -120 330 -209 435 -261 166 -83 412 -148 412 -109 0 11
-19 19 -62 29 -203 42 -678 357 -1488 984 -74 57 -144 104 -155 104 -11 0 -31
-8 -45 -17z m190 -97 c559 -433 946 -707 1213 -860 119 -68 172 -92 282 -126
l60 -19 -57 5 c-165 15 -394 126 -775 377 -78 51 -166 108 -197 126 -31 18
-106 70 -168 116 -62 45 -158 113 -213 151 -55 38 -138 108 -185 155 -47 48
-101 98 -120 110 -19 13 -37 25 -40 27 -6 6 42 43 55 43 6 0 71 -48 145 -105z"/>
</g>
</g>
<g>
<path d="M2498 803 c1376 -2 3628 -2 5005 0 1376 1 250 2 -2503 2 -2753 0
-3879 -1 -2502 -2z"/>
</g>
<g>
<path d="M2123 538 c-19 -9 -40 -54 -30 -65 3 -2 7 8 11 22 7 29 26 34 26 6 0
-11 5 -23 10 -26 6 -4 8 -10 6 -14 -3 -4 1 -8 9 -8 8 0 13 3 12 6 -1 3 4 16
11 28 9 16 9 24 0 29 -7 4 -8 3 -4 -4 4 -8 0 -12 -11 -12 -14 0 -15 -2 -4 -9
9 -6 10 -11 2 -15 -11 -7 -18 3 -23 39 -4 26 28 32 53 9 21 -19 26 -65 7 -60
-7 1 -9 1 -5 -2 12 -6 -14 -32 -33 -32 -10 0 -23 7 -30 15 -7 8 -17 12 -22 9
-14 -9 24 -33 53 -34 33 0 59 29 59 67 0 52 -45 76 -97 51z"/>
</g>
<g>
<path d="M300 510 c0 -18 71 -228 85 -250 3 -5 15 -6 27 -1 29 11 115 249 92
258 -21 8 -22 6 -59 -102 -19 -54 -36 -99 -37 -101 -2 -1 -21 46 -42 107 -24
68 -44 109 -52 109 -8 0 -14 -9 -14 -20z m72 -137 c13 -40 28 -73 33 -73 6 0
26 46 46 102 20 56 41 104 47 106 12 4 -62 -216 -78 -232 -5 -5 -15 -6 -22 -4
-13 6 -89 211 -87 238 1 21 34 -53 61 -137z"/>
</g>
<g>
<path d="M859 526 c-6 -10 -7 -200 -1 -221 10 -35 55 -65 60 -40 2 8 -4 25
-12 37 -22 32 -21 114 1 127 10 5 15 12 12 16 -4 3 -14 -1 -23 -10 -20 -21
-21 -100 -1 -138 10 -21 11 -27 2 -24 -26 8 -37 52 -34 139 3 91 10 117 21 73
4 -15 13 -25 24 -25 16 1 16 1 0 11 -10 5 -18 20 -18 33 0 13 -6 23 -15 23 -8
0 -15 -1 -16 -1z"/>
</g>
<g>
<path d="M1303 519 c-22 -7 -34 -18 -42 -40 -17 -48 3 -79 63 -99 58 -19 76
-40 56 -65 -11 -13 -25 -16 -61 -13 -54 6 -75 -3 -66 -26 6 -16 41 -22 107
-17 45 3 80 36 80 73 0 46 -16 65 -69 83 -27 9 -54 22 -60 29 -17 20 12 40 46
32 52 -13 67 -11 71 6 6 29 -73 51 -125 37z m100 -21 c27 -14 11 -29 -19 -18
-37 15 -70 12 -85 -6 -19 -23 -2 -43 56 -65 28 -10 56 -27 63 -36 42 -57 -31
-123 -116 -105 -51 11 -34 27 23 24 57 -4 79 11 73 50 -2 17 -15 27 -56 42
-65 23 -88 52 -71 89 19 42 77 53 132 25z"/>
</g>
<g>
<path d="M1478 522 c-16 -3 -18 -16 -18 -105 0 -121 11 -151 58 -155 37 -4 45
20 12 38 -16 9 -20 21 -20 65 0 45 3 55 20 60 25 8 26 32 1 40 -10 3 -22 18
-27 33 -6 19 -15 27 -26 24z m20 -39 c2 -12 12 -23 24 -26 22 -6 16 -27 -8
-27 -11 0 -14 -15 -14 -64 0 -55 3 -66 23 -79 l22 -16 -22 0 c-40 -1 -53 34
-53 142 0 74 3 98 13 95 6 -3 13 -14 15 -25z"/>
</g>
<g>
<path d="M1940 390 c0 -123 1 -130 20 -130 17 0 20 7 20 40 0 22 3 40 8 40 4
0 18 -18 32 -40 19 -31 31 -40 52 -40 37 0 35 13 -7 64 -19 24 -35 48 -35 54
0 5 14 22 30 35 31 27 37 42 20 52 -13 8 -67 -22 -80 -44 -18 -34 -11 -33 26
4 19 19 39 33 45 30 5 -4 -4 -18 -21 -32 -39 -32 -38 -56 6 -109 29 -36 32
-44 17 -44 -11 0 -29 17 -43 40 -14 22 -33 40 -42 40 -14 0 -18 -8 -18 -40 0
-22 -4 -40 -10 -40 -6 0 -10 47 -10 120 0 126 16 168 23 58 l3 -63 2 68 c2 61
0 67 -18 67 -19 0 -20 -7 -20 -130z"/>
</g>
<g>
<path d="M525 447 c-26 -22 -29 -31 -30 -86 0 -48 4 -65 21 -81 38 -39 153
-35 138 4 -4 10 -17 12 -45 9 -29 -4 -45 -1 -59 12 -31 28 -24 35 33 35 70 0
81 9 74 56 -8 47 -24 63 -68 70 -28 5 -41 1 -64 -19z m101 -12 c17 -17 24 -34
22 -53 -3 -26 -6 -27 -65 -30 -53 -2 -63 -6 -63 -21 0 -32 35 -54 80 -49 24 2
39 0 37 -7 -2 -5 -20 -11 -40 -13 -31 -3 -43 2 -68 28 -28 28 -31 36 -26 76 9
84 72 120 123 69z"/>
<g>
<path d="M536 418 c-28 -39 -21 -48 39 -48 59 0 67 9 45 51 -15 27 -64 25 -84
-3z m74 -7 c15 -30 14 -31 -35 -31 -49 0 -53 4 -28 32 21 24 50 23 63 -1z"/>
</g>
</g>
<g>
<path d="M725 459 c-32 -15 -45 -44 -46 -97 -2 -74 33 -113 99 -111 68 1 84
39 18 39 -36 0 -48 5 -65 26 -12 15 -21 34 -21 44 0 10 9 29 21 44 16 20 29
26 60 26 27 0 39 4 39 14 0 26 -64 35 -105 15z m90 -9 c4 -6 -8 -10 -28 -10
-51 0 -82 -29 -82 -78 0 -55 26 -82 77 -82 24 0 37 -4 33 -10 -10 -16 -68 -11
-92 8 -69 54 -32 182 53 182 18 0 36 -4 39 -10z"/>
</g>
<g>
<path d="M980 458 c-50 -27 -63 -127 -22 -178 21 -25 77 -35 115 -21 55 21 72
128 29 182 -21 25 -88 35 -122 17z m105 -22 c64 -64 26 -176 -60 -176 -31 0
-71 38 -81 74 -22 91 79 164 141 102z"/>
<g>
<path d="M984 426 c-14 -11 -19 -26 -19 -66 0 -58 18 -80 65 -80 47 0 65 22
65 80 0 58 -18 80 -65 80 -14 0 -35 -6 -46 -14z m86 -16 c39 -39 12 -120 -40
-120 -29 0 -60 36 -60 70 0 34 31 70 60 70 11 0 29 -9 40 -20z"/>
</g>
</g>
<g>
<path d="M1183 463 l-43 -4 0 -100 c0 -92 1 -99 20 -99 18 0 20 7 20 75 0 71
2 76 25 87 14 6 25 19 25 30 0 10 -1 17 -2 16 -2 -1 -22 -3 -45 -5z m15 -29
c-27 -14 -28 -18 -28 -89 0 -43 -4 -75 -10 -75 -6 0 -10 36 -10 88 l0 89 38 1
37 1 -27 -15z"/>
</g>
<g>
<path d="M1615 456 c-78 -34 -71 -169 9 -196 82 -27 145 48 117 141 -10 31
-20 44 -46 55 -41 17 -42 17 -80 0z m70 -8 c29 -13 55 -55 55 -88 0 -61 -65
-113 -112 -90 -75 39 -77 137 -3 178 26 14 29 14 60 0z"/>
<g>
<path d="M1610 411 c-5 -11 -10 -34 -10 -51 0 -50 16 -70 55 -70 39 0 55 20
55 70 0 50 -16 70 -55 70 -24 0 -38 -6 -45 -19z m84 -23 c14 -40 -3 -82 -34
-86 -42 -6 -65 51 -39 99 16 30 61 22 73 -13z"/>
</g>
</g>
<g>
<path d="M1835 463 c-45 -11 -65 -43 -65 -103 0 -80 32 -107 118 -102 15 2 22
8 22 22 0 16 -7 20 -33 20 -40 0 -67 25 -67 62 0 33 29 58 68 58 25 0 32 4 32
20 0 11 -6 20 -14 20 -8 0 -20 2 -28 4 -7 2 -22 1 -33 -1z m56 -13 c5 0 9 -4
9 -10 0 -5 -15 -10 -34 -10 -25 0 -39 -7 -50 -22 -36 -51 -8 -118 50 -118 34
0 49 -19 17 -22 -67 -6 -103 26 -103 92 0 36 5 51 23 67 26 24 47 33 65 27 8
-2 18 -4 23 -4z"/>
</g>
<g>
<path d="M7250 400 c0 -10 9 -44 21 -75 28 -75 50 -75 78 0 12 31 21 65 21 75
0 36 -28 21 -43 -22 l-15 -43 -18 43 c-18 43 -44 57 -44 22z m65 -70 c8 0 15
8 15 18 1 9 8 28 16 42 l15 25 -5 -32 c-8 -46 -33 -103 -46 -103 -13 0 -39 58
-45 103 -5 30 -4 30 15 -10 12 -24 27 -43 35 -43z"/>
</g>
<g>
<path d="M7868 413 c-36 -10 -28 -75 11 -88 30 -9 26 -25 -7 -25 -18 0 -29 -5
-29 -14 0 -18 38 -29 72 -20 20 5 25 12 25 40 0 27 -6 37 -32 51 l-33 18 33 3
c25 3 32 8 30 20 -3 17 -37 25 -70 15z m57 -13 c3 -6 -5 -10 -19 -10 -43 0
-42 -26 2 -49 32 -17 30 -59 -4 -67 -14 -4 -30 -2 -37 5 -8 8 -4 11 15 11 38
0 43 27 9 45 -16 8 -31 21 -34 29 -12 30 51 63 68 36z"/>
</g>
<g>
<path d="M8868 403 c-8 -10 -8 -19 1 -36 7 -13 11 -41 9 -63 -3 -36 -1 -39 22
-39 23 0 25 3 22 45 -4 79 -12 107 -27 107 -9 0 -20 -6 -27 -14z m36 -11 c2
-4 6 -32 7 -62 2 -42 0 -55 -11 -55 -11 0 -14 12 -11 46 1 26 -2 50 -8 54 -6
3 -9 11 -6 16 7 11 22 12 29 1z"/>
</g>
<g>
<path d="M8959 403 c-8 -9 -14 -37 -14 -63 0 -26 6 -54 14 -63 17 -21 51 -22
77 -3 27 20 26 112 -1 132 -25 19 -60 18 -76 -3z m70 -6 c34 -42 15 -127 -29
-127 -24 0 -50 36 -50 70 0 53 51 90 79 57z"/>
<g>
<path d="M8977 383 c-9 -8 -9 -56 -1 -77 10 -25 43 -19 50 9 9 37 -3 75 -25
75 -10 0 -21 -3 -24 -7z m38 -44 c0 -24 -5 -34 -15 -34 -16 0 -25 37 -16 62
10 26 31 8 31 -28z"/>
</g>
</g>
<g>
<path d="M9077 413 c-4 -3 -7 -21 -7 -39 0 -28 4 -33 28 -36 36 -4 36 -32 -1
-36 -40 -5 -32 -36 10 -40 25 -2 35 2 48 21 21 33 10 75 -22 88 -36 13 -42 10
-11 -6 35 -20 45 -51 22 -76 -18 -20 -49 -25 -59 -10 -3 5 7 11 22 13 22 2 28
8 28 28 0 20 -6 26 -28 28 -24 3 -28 7 -25 30 2 21 9 28 31 30 15 2 27 -2 27
-8 0 -6 -5 -8 -12 -4 -7 4 -8 3 -4 -4 11 -19 26 -14 26 8 0 16 -7 20 -33 20
-19 0 -37 -3 -40 -7z"/>
</g>
<g>
<path d="M9199 413 c-34 -9 -29 -93 6 -93 12 0 11 4 -5 20 -24 24 -25 34 -4
54 33 34 66 9 66 -49 0 -37 -25 -75 -49 -75 -20 0 -16 17 5 22 13 4 21 18 25
43 7 43 3 55 -19 55 -23 0 -30 -31 -9 -46 20 -15 14 -44 -10 -44 -8 0 -15 -9
-15 -20 0 -26 41 -27 64 -1 24 27 24 110 0 128 -18 13 -26 14 -55 6z m35 -54
c-3 -5 -10 -7 -15 -3 -5 3 -7 10 -3 15 3 5 10 7 15 3 5 -3 7 -10 3 -15z"/>
</g>
<g>
<path d="M9297 413 c-4 -3 -7 -21 -7 -39 0 -28 4 -33 28 -36 36 -4 36 -32 -1
-36 -40 -5 -32 -36 10 -40 63 -6 80 83 22 112 -16 8 -29 11 -29 7 0 -4 12 -13
26 -19 48 -23 17 -108 -32 -87 -16 7 -15 9 11 14 24 5 30 11 30 31 0 20 -6 26
-28 28 -24 3 -28 7 -25 30 2 21 9 28 31 30 15 2 27 -2 27 -8 0 -6 -5 -8 -12
-4 -7 4 -8 3 -4 -4 11 -19 26 -14 26 8 0 16 -7 20 -33 20 -19 0 -37 -3 -40 -7z"/>
</g>
<g>
<path d="M9422 404 c-18 -12 -22 -25 -22 -69 0 -45 4 -56 21 -65 29 -16 68 -4
78 23 11 30 -1 59 -29 69 -22 8 -22 7 4 -17 26 -24 27 -28 13 -48 -32 -49 -77
-28 -77 38 0 44 22 75 53 75 25 0 21 -18 -5 -22 -16 -2 -24 -12 -30 -38 -4
-19 -5 -41 -3 -47 6 -18 42 -16 49 3 8 20 -1 34 -20 34 -9 0 -14 7 -12 18 2
13 15 18 56 20 56 3 58 2 41 -30 -6 -11 -15 -34 -19 -49 -7 -25 -6 -29 11 -29
15 0 27 15 45 55 28 65 30 81 8 89 -32 12 -139 6 -162 -10z m163 -4 c4 -6 -6
-36 -20 -68 -15 -31 -29 -52 -31 -46 -3 6 4 30 15 55 11 24 18 45 17 47 -2 1
-20 3 -40 4 -20 1 -36 5 -36 10 0 12 88 10 95 -2z m-120 -79 c7 -12 -12 -24
-25 -16 -11 7 -4 25 10 25 5 0 11 -4 15 -9z"/>
</g>
<g>
<path d="M9642 389 c-13 -16 -27 -42 -32 -58 -7 -26 -5 -30 18 -36 15 -4 30
-12 34 -18 5 -8 8 -6 8 6 0 10 -8 17 -20 17 -29 0 -35 24 -14 59 37 62 58 46
52 -39 -1 -27 0 -50 5 -50 4 0 7 26 6 58 -1 92 -18 110 -57 61z"/>
</g>
<g>
<path d="M8228 358 c-3 -49 -5 -53 -28 -53 -15 0 -25 6 -25 15 0 8 11 17 25
22 23 6 23 7 -5 5 -25 -2 -30 -6 -30 -27 0 -22 4 -25 38 -26 l37 -1 0 53 c0
30 5 54 10 54 6 0 10 -13 10 -30 0 -29 13 -40 25 -20 11 19 26 11 16 -8 -6
-11 -6 -24 0 -33 19 -30 8 -39 -16 -12 -23 26 -24 27 -25 7 0 -17 -8 -23 -41
-28 -49 -8 -69 5 -69 44 0 33 22 54 50 47 11 -3 18 -1 14 4 -8 14 -50 11 -64
-6 -18 -22 -19 -64 -1 -87 15 -18 24 -19 73 -13 46 6 56 10 52 24 -3 9 0 7 7
-5 14 -28 92 -34 87 -7 -2 10 -12 19 -23 21 -20 4 -20 4 0 -12 20 -15 20 -15
-2 -16 -16 0 -23 6 -23 18 0 10 -5 23 -11 29 -8 8 -8 13 0 17 6 4 11 14 11 22
0 17 -36 19 -43 2 -3 -7 -6 2 -6 20 -1 25 -5 32 -20 32 -17 0 -20 -8 -23 -52z"/>
</g>
<g>
<path d="M8796 356 c-9 -30 -16 -60 -15 -68 0 -7 8 13 17 44 17 57 32 84 32
56 0 -36 -32 -117 -48 -121 -12 -3 -11 -5 6 -6 12 0 22 1 22 4 0 3 9 37 19 75
19 68 19 70 1 70 -14 0 -23 -14 -34 -54z"/>
</g>
<g>
<path d="M7395 366 c-22 -16 -25 -67 -5 -91 18 -22 74 -16 78 8 3 13 -3 17
-25 18 l-28 1 27 9 c36 13 42 35 15 54 -26 19 -38 19 -62 1z m55 -11 c15 -18
5 -35 -21 -35 -11 0 -19 7 -20 18 0 14 -2 14 -8 -3 -10 -24 9 -45 39 -45 12 0
18 -4 15 -10 -11 -18 -44 -10 -61 15 -15 23 -15 27 0 50 19 28 38 32 56 10z"/>
</g>
<g>
<path d="M7503 368 c-35 -44 -14 -108 35 -108 54 0 64 34 12 41 -35 5 -32 32
5 41 29 6 29 6 -5 5 -30 -2 -35 -5 -35 -27 0 -20 6 -26 28 -28 15 -2 25 -8 22
-13 -10 -15 -41 -10 -59 10 -16 17 -16 23 -4 48 10 21 21 28 41 28 15 -1 27 3
27 7 0 13 -57 9 -67 -4z"/>
</g>
<g>
<path d="M7590 346 c0 -45 17 -89 33 -83 8 2 12 23 11 58 0 48 -3 54 -22 57
-19 3 -22 -1 -22 -32z m30 -10 c0 -19 3 -43 6 -53 5 -16 4 -16 -10 1 -18 22
-22 86 -6 86 6 0 10 -15 10 -34z"/>
</g>
<g>
<path d="M7664 355 c-26 -40 -1 -95 45 -95 37 0 51 17 51 60 0 43 -14 60 -52
60 -18 0 -33 -8 -44 -25z m74 3 c17 -17 15 -63 -3 -78 -21 -17 -47 -9 -64 22
-14 24 -14 28 3 47 21 24 46 27 64 9z"/>
<g>
<path d="M7684 336 c-10 -26 4 -48 28 -44 17 2 23 10 23 28 0 18 -6 26 -23 28
-13 2 -25 -3 -28 -12z m42 -7 c10 -17 -13 -36 -27 -22 -12 12 -4 33 11 33 5 0
12 -5 16 -11z"/>
</g>
</g>
<g>
<path d="M7950 332 c0 -31 5 -54 15 -62 23 -19 32 -4 30 52 -1 46 -5 53 -23
56 -20 3 -22 -1 -22 -46z m30 4 c0 -19 3 -43 6 -53 5 -16 4 -16 -10 1 -18 22
-22 86 -6 86 6 0 10 -15 10 -34z"/>
</g>
<g>
<path d="M8024 355 c-26 -40 -1 -95 45 -95 37 0 51 17 51 60 0 43 -14 60 -52
60 -18 0 -33 -8 -44 -25z m74 3 c17 -17 15 -63 -3 -78 -21 -17 -47 -9 -64 22
-14 24 -14 28 3 47 21 24 46 27 64 9z"/>
<g>
<path d="M8044 336 c-10 -26 4 -48 28 -44 17 2 23 10 23 28 0 18 -6 26 -23 28
-13 2 -25 -3 -28 -12z m42 -7 c10 -17 -13 -36 -27 -22 -12 12 -4 33 11 33 5 0
12 -5 16 -11z"/>
</g>
</g>
<g>
<path d="M8396 358 c-42 -60 19 -123 84 -88 13 7 21 7 25 0 9 -14 58 -13 73 2
7 7 12 28 12 48 0 20 -5 41 -12 48 -15 15 -64 16 -73 2 -4 -7 -12 -7 -25 0
-31 17 -68 12 -84 -12z m92 -3 c3 -3 0 -16 -6 -31 -9 -18 -19 -24 -35 -22 -30
4 -28 30 3 40 23 6 23 7 -5 5 -25 -2 -30 -6 -30 -27 0 -20 6 -26 28 -28 28 -3
28 -22 0 -22 -21 0 -53 29 -53 48 0 30 32 54 64 48 16 -4 32 -8 34 -11z m80 3
c7 -7 12 -24 12 -38 0 -52 -48 -68 -76 -25 -15 23 -15 27 0 50 18 27 45 32 64
13z m-78 -64 c0 -8 -5 -12 -10 -9 -6 4 -8 11 -5 16 9 14 15 11 15 -7z"/>
<g>
<path d="M8514 336 c-10 -26 4 -48 28 -44 17 2 23 10 23 28 0 18 -6 26 -23 28
-13 2 -25 -3 -28 -12z m42 -7 c10 -17 -13 -36 -27 -22 -12 12 -4 33 11 33 5 0
12 -5 16 -11z"/>
</g>
</g>
<g>
<path d="M8628 373 c-20 -5 -31 -30 -16 -39 7 -4 8 -3 4 4 -3 6 1 15 11 20 21
11 102 10 121 -1 14 -10 16 -63 2 -72 -6 -4 -10 8 -10 30 0 29 -3 36 -17 33
-12 -2 -19 -14 -21 -36 -4 -44 -22 -41 -22 4 0 31 -3 35 -22 32 -18 -2 -24
-11 -26 -35 -4 -38 -19 -44 -25 -10 -4 19 -4 18 -6 -5 -1 -22 4 -28 18 -28 15
0 21 8 23 32 4 46 28 49 28 4 0 -29 4 -36 20 -36 15 0 20 7 20 29 0 17 5 33
10 36 6 4 10 -8 10 -29 0 -25 5 -36 15 -36 19 0 30 46 19 79 -9 24 -15 26 -64
27 -30 0 -62 -1 -72 -3z"/>
</g>
<g>
<path d="M9660 354 c0 -14 -4 -23 -9 -19 -5 3 -12 1 -16 -5 -3 -5 3 -10 14
-10 17 0 21 6 21 30 0 17 -2 30 -5 30 -3 0 -5 -12 -5 -26z"/>
</g>
<g>
<path d="M7776 354 c-9 -25 -7 -29 7 -12 6 9 21 18 32 21 16 4 14 5 -6 6 -16
1 -29 -5 -33 -15z"/>
</g>
<g>
<path d="M7807 343 c-4 -3 -7 -19 -7 -35 0 -33 -17 -38 -23 -5 -4 19 -4 18 -6
-5 -1 -22 4 -28 19 -28 15 0 20 7 20 30 0 17 7 33 18 39 14 9 15 10 1 11 -9 0
-19 -3 -22 -7z"/>
</g>
</g>
</svg>
